<?xml version="1.0" encoding="UTF-8"?>
<svg width="48" height="48" viewBox="0 0 48 48" version="1.1" xmlns="http://www.w3.org/2000/svg">
<path d="M0 0 C0.61069336 0.32613281 1.22138672 0.65226562 1.85058594 0.98828125 C42.88745395 22.98562 73.77553398 62.14194087 87.65234375 106.3828125 C89.02008163 110.94709395 90.19549655 115.54133057 91.25 120.1875 C91.40106201 120.85048096 91.55212402 121.51346191 91.70776367 122.1965332 C94.43306431 135.00221825 95.37952252 147.64271468 95.3125 160.6875 C95.30976578 161.79993576 95.30976578 161.79993576 95.30697632 162.93484497 C95.25793468 174.82991913 94.61683711 186.36595724 92 198 C91.82307617 198.7935791 91.64615234 199.5871582 91.46386719 200.40478516 C85.47390175 226.44923763 74.30330044 250.7656446 58 272 C57.36964844 272.83660156 56.73929687 273.67320312 56.08984375 274.53515625 C27.24915651 311.37788389 -16.09192007 335.79378157 -62.40087891 342.22583008 C-111.89875206 347.92241143 -160.87165483 335.19377858 -200.25 304.5625 C-209.88586534 296.89072042 -219.28823132 288.63533911 -227 279 C-227.74378906 278.09378906 -228.48757812 277.18757813 -229.25390625 276.25390625 C-252.74705895 247.09530738 -268.98954781 209.15635326 -269.203125 171.35546875 C-269.20882507 170.54620438 -269.21452515 169.73694 -269.22039795 168.90315247 C-269.22979274 167.19464398 -269.23635979 165.48611782 -269.24023438 163.77758789 C-269.24983132 161.23223797 -269.28086164 158.68773551 -269.3125 156.14257812 C-269.41125997 140.98122273 -267.69880795 126.1216683 -263.3125 111.5625 C-263.05758789 110.70035889 -262.80267578 109.83821777 -262.54003906 108.94995117 C-248.78253719 63.76962469 -219.21188738 25.41356619 -178 2 C-176.87851563 1.34644531 -175.75703125 0.69289063 -174.6015625 0.01953125 C-121.54648756 -30.14131581 -53.15678928 -28.93874603 0 0 Z " fill="#FEFEFE" transform="translate(283,24)"/>
<path d="M0 0 C2.31 0 4.62 0 7 0 C7 2.64 7 5.28 7 8 C8.98 8 10.96 8 13 8 C13.33 8.99 13.66 9.98 14 11 C14.66 11 15.32 11 16 11 C16 10.34 16 9.68 16 9 C20.46863852 6.36959687 24.07379202 6.90629144 29 8 C31.5625 9.25 31.5625 9.25 33 11 C33.25 13.6875 33.25 13.6875 33 16 C32.01 16 31.02 16 30 16 C29.77570313 15.35546875 29.55140625 14.7109375 29.3203125 14.046875 C28.17110544 11.75611148 28.17110544 11.75611148 25.6171875 11.390625 C24.25980469 11.32101563 24.25980469 11.32101563 22.875 11.25 C21.96492188 11.19328125 21.05484375 11.1365625 20.1171875 11.078125 C19.41851562 11.05234375 18.71984375 11.0265625 18 11 C18 12.98 18 14.96 18 17 C21.01331964 18.31832734 23.92407056 19.23471291 27.125 19.9375 C29.34241638 20.493946 30.99871398 20.99927661 33 22.125 C34.71880436 25.34775818 34.83223877 28.52417925 34 32 C30.61559107 35.56253571 27.62365063 36.26188422 22.875 36.4375 C18.90340933 36.43131372 16.998653 35.60482069 14 33 C13.67 33.99 13.34 34.98 13 36 C11.3973218 36.10824843 9.79254252 36.18570645 8.1875 36.25 C7.29417969 36.29640625 6.40085938 36.3428125 5.48046875 36.390625 C3 36 3 36 1.1875 34.59375 C-0.66320187 30.5514275 -0.31379143 26.63457932 -0.1875 22.25 C-0.16719727 20.91775391 -0.16719727 20.91775391 -0.14648438 19.55859375 C-0.11121309 17.37177422 -0.06192752 15.18620034 0 13 C-1.32 13 -2.64 13 -4 13 C-4 11.35 -4 9.7 -4 8 C-2.68 8 -1.36 8 0 8 C0 5.36 0 2.72 0 0 Z " fill="#E2ECF2" transform="translate(197,166)"/>
<path d="M0 0 C1.98 0 3.96 0 6 0 C6 3.96 6 7.92 6 12 C6.99 11.34 7.98 10.68 9 10 C13.07463524 9.33375155 17.24356703 9.05503906 20.953125 11.05078125 C23.0950226 12.81316786 24.7539484 14.50789679 26 17 C26.14851844 18.93359586 26.22130833 20.87342097 26.25 22.8125 C26.27578125 23.85019531 26.3015625 24.88789063 26.328125 25.95703125 C25.95268861 29.43875678 25.00755547 31.16221715 23 34 C22.55527344 34.75410156 22.11054688 35.50820312 21.65234375 36.28515625 C20 38 20 38 17.44140625 38.49609375 C16.01634766 38.46708984 16.01634766 38.46708984 14.5625 38.4375 C13.14130859 38.43556641 13.14130859 38.43556641 11.69140625 38.43359375 C8.66771038 37.94646713 7.26100271 37.01512535 5 35 C5 35.66 5 36.32 5 37 C3.35 37 1.7 37 0 37 C0 24.79 0 12.58 0 0 Z " fill="#2094D0" transform="translate(128,164)"/>
<path d="M0 0 C4.087121 2.20288894 6.5295353 4.58860589 8 9 C8.09247381 10.47686111 8.12999071 11.95775501 8.125 13.4375 C8.12886719 14.58025391 8.12886719 14.58025391 8.1328125 15.74609375 C8.00276015 17.95315859 7.60856199 19.87969276 7 22 C6.34 22 5.68 22 5 22 C4.7525 22.61875 4.505 23.2375 4.25 23.875 C2.74042934 26.44127012 1.72865816 26.89981278 -1 28 C-5.1779007 28.575489 -8.88738929 28.44504428 -12.8125 26.875 C-16.28462969 23.89888884 -18.66904172 21.26154822 -19.3515625 16.59765625 C-19.52490612 11.35795152 -19.02914585 7.43553499 -16 3 C-11.36287425 -1.31553538 -5.9950669 -0.98613372 0 0 Z " fill="#1D93D0" transform="translate(116,174)"/>
<path d="M0 0 C2.6875 1.625 2.6875 1.625 4.6875 3.625 C4.91455078 5.59619141 4.91455078 5.59619141 4.8828125 7.9765625 C4.87636719 8.82734375 4.86992187 9.678125 4.86328125 10.5546875 C4.84652344 11.44414062 4.82976562 12.33359375 4.8125 13.25 C4.80347656 14.1471875 4.79445312 15.044375 4.78515625 15.96875 C4.7615497 18.18776586 4.7286231 20.40625077 4.6875 22.625 C5.6775 22.625 6.6675 22.625 7.6875 22.625 C7.6875 24.275 7.6875 25.925 7.6875 27.625 C5.3775 27.625 3.0675 27.625 0.6875 27.625 C0.3575 26.635 0.0275 25.645 -0.3125 24.625 C-0.993125 25.12 -1.67375 25.615 -2.375 26.125 C-6.03081169 27.99179746 -8.24558428 28.05309639 -12.3125 27.625 C-17.96366279 25.32267442 -17.96366279 25.32267442 -19.3125 22.625 C-19.89040826 16.38359079 -19.89040826 16.38359079 -17.67578125 13.4765625 C-14.80048832 11.22385366 -12.78688752 10.85256001 -9.1875 10.375 C-8.13304687 10.22546875 -7.07859375 10.0759375 -5.9921875 9.921875 C-3.3125 9.625 -3.3125 9.625 -1.3125 9.625 C-1.9725 7.975 -2.6325 6.325 -3.3125 4.625 C-5.6225 4.625 -7.9325 4.625 -10.3125 4.625 C-10.9725 5.945 -11.6325 7.265 -12.3125 8.625 C-14.2925 8.625 -16.2725 8.625 -18.3125 8.625 C-18.25 5.875 -18.25 5.875 -17.3125 2.625 C-11.62458893 -1.69781241 -6.83988256 -2.83919653 0 0 Z " fill="#1D93D0" transform="translate(175.3125,174.375)"/>
<path d="M0 0 C1.32 0 2.64 0 4 0 C4 2.64 4 5.28 4 8 C7.96 8 11.92 8 16 8 C16 8.99 16 9.98 16 11 C16.7425 10.505 17.485 10.01 18.25 9.5 C21 8 21 8 25 8 C25 8.99 25 9.98 25 11 C23.576875 11.12375 23.576875 11.12375 22.125 11.25 C18.95673478 11.63657111 18.95673478 11.63657111 17.83056641 13.74902344 C16.92636539 16.19956235 16.68617328 18.15949461 16.5859375 20.765625 C16.54726562 21.65507812 16.50859375 22.54453125 16.46875 23.4609375 C16.42234375 24.84152344 16.42234375 24.84152344 16.375 26.25 C16.33632812 27.18585938 16.29765625 28.12171875 16.2578125 29.0859375 C16.16375156 31.39043054 16.07810601 33.69492013 16 36 C14.7934375 35.7215625 14.7934375 35.7215625 13.5625 35.4375 C12.716875 35.293125 11.87125 35.14875 11 35 C10.505 35.495 10.505 35.495 10 36 C4.1589404 36.37086093 4.1589404 36.37086093 2 36 C-0.20192224 32.69711664 -0.23959968 31.72537273 -0.1953125 27.89453125 C-0.18886719 26.91162109 -0.18242187 25.92871094 -0.17578125 24.91601562 C-0.15902344 23.89185547 -0.14226562 22.86769531 -0.125 21.8125 C-0.11597656 20.77673828 -0.10695312 19.74097656 -0.09765625 18.67382812 C-0.0740786 16.11565315 -0.0411703 13.55794252 0 11 C-1.32 11 -2.64 11 -4 11 C-4 10.34 -4 9.68 -4 9 C-2.68 9 -1.36 9 0 9 C0 6.03 0 3.06 0 0 Z " fill="#F3F3F3" transform="translate(237,166)"/>
<path d="M0 0 C3.50252011 2.04313673 5.77361702 4.09787233 7 8 C7 10.31 7 12.62 7 15 C0.4 15 -6.2 15 -13 15 C-11.39467611 20.69302969 -11.39467611 20.69302969 -9 24 C-3.11510543 24.5540567 -3.11510543 24.5540567 2 22 C3.19232613 19.94996045 3.19232613 19.94996045 4 18 C4.99 18 5.98 18 7 18 C5.80862336 22.368381 4.87722517 25.47980364 1 28 C-3.17357754 28.76730721 -7.14277475 28.95786027 -10.984375 26.9765625 C-12.625 25.6875 -12.625 25.6875 -15 23 C-15 22.01 -15 21.02 -15 20 C-15.66 20 -16.32 20 -17 20 C-17.68860423 8.1789608 -17.68860423 8.1789608 -15.1875 4.375 C-10.57533861 -0.63248951 -6.48231079 -0.84912058 0 0 Z " fill="#464344" transform="translate(313,174)"/>
<path d="M0 0 C2.5625 1.75 2.5625 1.75 4 4 C4.25 6.75 4.25 6.75 4 9 C1.6875 9.25 1.6875 9.25 -1 9 C-1.45375 8.360625 -1.9075 7.72125 -2.375 7.0625 C-3.95929206 4.59458849 -3.95929206 4.59458849 -7.6875 4.25 C-8.780625 4.1675 -9.87375 4.085 -11 4 C-12.95218444 7.27688103 -13.27063566 9.77069727 -13.25 13.5625 C-13.25515625 14.51253906 -13.2603125 15.46257812 -13.265625 16.44140625 C-13.17576075 19.24099273 -13.17576075 19.24099273 -11 22 C-7.54250051 22.66676878 -7.54250051 22.66676878 -4 22 C-2.96986723 20.35178756 -1.96885372 18.68496298 -1 17 C2.1875 16.6875 2.1875 16.6875 5 17 C3.9865939 21.35764625 2.55942231 24.33043327 -1.09375 27.0703125 C-4.99373442 28.97235408 -8.83731573 29.09295762 -13 28 C-16.17435732 25.53460377 -18.21521306 22.56957388 -20 19 C-20.40837661 14.12304083 -20.64885631 9.55725515 -18.75 5 C-13.35409973 -1.16674317 -7.76370139 -1.83764675 0 0 Z " fill="#2195D0" transform="translate(90,174)"/>
<path d="M0 0 C3.5 0.4375 3.5 0.4375 5.4375 1.8125 C6.5 3.4375 6.5 3.4375 6.5 5.4375 C8.15 5.4375 9.8 5.4375 11.5 5.4375 C11.83 4.1175 12.16 2.7975 12.5 1.4375 C12.5 2.4275 12.5 3.4175 12.5 4.4375 C13.49 4.1075 14.48 3.7775 15.5 3.4375 C15.4131252 5.39667659 15.30495488 7.35491871 15.1875 9.3125 C15.12949219 10.40304688 15.07148437 11.49359375 15.01171875 12.6171875 C14.84285156 13.54789063 14.67398438 14.47859375 14.5 15.4375 C13.51 16.0975 12.52 16.7575 11.5 17.4375 C11.83 16.1175 12.16 14.7975 12.5 13.4375 C10.52 13.4375 8.54 13.4375 6.5 13.4375 C6.190625 14.241875 5.88125 15.04625 5.5625 15.875 C4.5 18.4375 4.5 18.4375 3.5 19.4375 C0.125 19.75 0.125 19.75 -3.5 19.4375 C-5.71654265 17.25654404 -6.43556162 15.86708917 -6.8984375 12.78125 C-6.89070313 11.8428125 -6.88296875 10.904375 -6.875 9.9375 C-6.88273437 8.9990625 -6.89046875 8.060625 -6.8984375 7.09375 C-6.18752012 2.35430078 -4.76569607 0.59571201 0 0 Z " fill="#EEF6FB" transform="translate(82.5,177.5625)"/>
<path d="M0 0 C1.98 0 3.96 0 6 0 C6 2.97 6 5.94 6 9 C7.65 9 9.3 9 11 9 C11 9.99 11 10.98 11 12 C9.35 12 7.7 12 6 12 C6.33 17.94 6.66 23.88 7 30 C8.65 30.33 10.3 30.66 12 31 C12 32.32 12 33.64 12 35 C10.56344146 35.08131463 9.1255517 35.13933559 7.6875 35.1875 C6.48673828 35.23970703 6.48673828 35.23970703 5.26171875 35.29296875 C2.42062965 34.92495203 1.74565859 34.23097644 0 32 C-0.34057617 29.9152832 -0.34057617 29.9152832 -0.29296875 27.55078125 C-0.28330078 26.70322266 -0.27363281 25.85566406 -0.26367188 24.98242188 C-0.23853516 24.10134766 -0.21339844 23.22027344 -0.1875 22.3125 C-0.17396484 21.41982422 -0.16042969 20.52714844 -0.14648438 19.60742188 C-0.11114079 17.40433834 -0.06180493 15.20247418 0 13 C-1.32 13 -2.64 13 -4 13 C-4 11.35 -4 9.7 -4 8 C-2.68 8 -1.36 8 0 8 C0 5.36 0 2.72 0 0 Z " fill="#1B92CF" transform="translate(197,166)"/>
<path d="M0 0 C0.99 0 1.98 0 3 0 C3 7.26 3 14.52 3 22 C4.423125 20.906875 5.84625 19.81375 7.3125 18.6875 C8.11300781 18.07261719 8.91351563 17.45773438 9.73828125 16.82421875 C11.9757112 15.0971954 11.9757112 15.0971954 13.66796875 13.26953125 C15 12 15 12 17 12 C17 11.34 17 10.68 17 10 C18.65 10 20.3 10 22 10 C22 10.66 22 11.32 22 12 C20.02053408 13.36363208 18.0180755 14.69418644 16 16 C14.05630262 17.35429841 14.05630262 17.35429841 13 19 C13.42331247 23.03067089 15.79850513 25.87474986 18.0625 29.125 C22 34.78558875 22 34.78558875 22 37 C20.68 37 19.36 37 18 37 C16.62109375 35.3203125 16.62109375 35.3203125 15.4375 33.125 C13.74866071 30.03525468 13.04687979 29.03125319 10 27 C9.67 26.01 9.34 25.02 9 24 C6.3094472 25.22007944 6.3094472 25.22007944 4 27 C3.76712992 28.68183948 3.58735834 30.3712416 3.4375 32.0625 C3.35371094 32.98160156 3.26992188 33.90070313 3.18359375 34.84765625 C3.12300781 35.55792969 3.06242187 36.26820313 3 37 C2.01 37 1.02 37 0 37 C0 24.79 0 12.58 0 0 Z " fill="#423E3F" transform="translate(273,164)"/>
<path d="M0 0 C2.5625 1.25 2.5625 1.25 4 3 C4.25 5.6875 4.25 5.6875 4 8 C3.01 8 2.02 8 1 8 C0.77570313 7.35546875 0.55140625 6.7109375 0.3203125 6.046875 C-0.82889456 3.75611148 -0.82889456 3.75611148 -3.3828125 3.390625 C-4.28773438 3.34421875 -5.19265625 3.2978125 -6.125 3.25 C-7.03507813 3.19328125 -7.94515625 3.1365625 -8.8828125 3.078125 C-9.58148438 3.05234375 -10.28015625 3.0265625 -11 3 C-11 4.98 -11 6.96 -11 9 C-7.98668036 10.31832734 -5.07592944 11.23471291 -1.875 11.9375 C0.34241638 12.493946 1.99871398 12.99927661 4 14.125 C5.71880436 17.34775818 5.83223877 20.52417925 5 24 C1.68407802 27.49044419 -1.39769509 28.30425108 -6.0625 28.625 C-8.8382368 28.51614758 -10.45809487 28.37414385 -12.75390625 26.7890625 C-15.47571878 23.73380855 -16 22.12063135 -16 18 C-15.01 18 -14.02 18 -13 18 C-12.34 19.98 -11.68 21.96 -11 24 C-9.37536158 24.05395478 -7.75021459 24.09277195 -6.125 24.125 C-5.22007812 24.14820313 -4.31515625 24.17140625 -3.3828125 24.1953125 C-0.81193006 24.24324836 -0.81193006 24.24324836 1 22 C1.64767793 19.42938689 1.64767793 19.42938689 2 17 C1.27554688 16.91363281 0.55109375 16.82726562 -0.1953125 16.73828125 C-6.50598363 15.82113038 -10.91396805 15.10753993 -15 10 C-15.06382622 6.29807935 -14.83732815 4.09216716 -12.5625 1.125 C-8.47735616 -1.81630357 -4.74831551 -0.94460273 0 0 Z " fill="#444142" transform="translate(226,174)"/>
<path d="M0 0 C3.5 0.625 3.5 0.625 5.9375 2.5 C8.1355471 6.89609421 7.83729606 10.79979248 7.5 15.625 C6.84 15.625 6.18 15.625 5.5 15.625 C4.84 16.945 4.18 18.265 3.5 19.625 C-2.74460432 20.22544272 -2.74460432 20.22544272 -5.9375 17.6875 C-8.05057951 13.54586416 -8.30011076 10.18645616 -7.5 5.625 C-5.44677803 1.60068494 -4.46392703 0.79712983 0 0 Z " fill="#EEF6FB" transform="translate(110.5,177.375)"/>
<path d="M0 0 C3.5 0.625 3.5 0.625 5.9375 2.5625 C8.05057951 6.70413584 8.30011076 10.06354384 7.5 14.625 C5.9375 17.6875 5.9375 17.6875 3.5 19.625 C0 20.25 0 20.25 -3.5 19.625 C-6.20051329 17.47843816 -7.27996278 15.87943901 -7.87890625 12.46484375 C-8.08242564 8.53232391 -7.74550892 6.10619749 -5.9375 2.5625 C-3.5 0.625 -3.5 0.625 0 0 Z " fill="#EDF6FB" transform="translate(140.5,177.375)"/>
<path d="M0 0 C1.98 0 3.96 0 6 0 C6 12.54 6 25.08 6 38 C4.02 38 2.04 38 0 38 C0 25.46 0 12.92 0 0 Z " fill="#1F94D0" transform="translate(185,164)"/>
<path d="M0 0 C1.32 0 2.64 0 4 0 C4 2.64 4 5.28 4 8 C5.65 8 7.3 8 9 8 C9 8.99 9 9.98 9 11 C7.35 11 5.7 11 4 11 C4 18.26 4 25.52 4 33 C5.32 33 6.64 33 8 33 C8 33.66 8 34.32 8 35 C5.125 35.125 5.125 35.125 2 35 C0 33 0 33 -0.22705078 30.75341797 C-0.21657715 29.84221191 -0.20610352 28.93100586 -0.1953125 27.9921875 C-0.18886719 27.00605469 -0.18242187 26.01992187 -0.17578125 25.00390625 C-0.15902344 23.97136719 -0.14226562 22.93882812 -0.125 21.875 C-0.11597656 20.83472656 -0.10695312 19.79445312 -0.09765625 18.72265625 C-0.07403747 16.14820908 -0.04110149 13.57421788 0 11 C-1.32 11 -2.64 11 -4 11 C-4 10.34 -4 9.68 -4 9 C-2.68 9 -1.36 9 0 9 C0 6.03 0 3.06 0 0 Z " fill="#555253" transform="translate(237,166)"/>
<path d="M0 0 C1.32 0 2.64 0 4 0 C4 0.99 4 1.98 4 3 C4.7425 2.505 5.485 2.01 6.25 1.5 C9 0 9 0 13 0 C13 0.99 13 1.98 13 3 C11.576875 3.12375 11.576875 3.12375 10.125 3.25 C6.95673478 3.63657111 6.95673478 3.63657111 5.83056641 5.74902344 C4.92636539 8.19956235 4.68617328 10.15949461 4.5859375 12.765625 C4.54726562 13.65507812 4.50859375 14.54453125 4.46875 15.4609375 C4.4378125 16.38132813 4.406875 17.30171875 4.375 18.25 C4.31699219 19.65378906 4.31699219 19.65378906 4.2578125 21.0859375 C4.16375156 23.39043054 4.07810601 25.69492013 4 28 C2.68 28 1.36 28 0 28 C0 18.76 0 9.52 0 0 Z " fill="#585556" transform="translate(249,174)"/>
<path d="M0 0 C7.11244665 -0.08442073 7.11244665 -0.08442073 10.3828125 2.71875 C11.7578125 5.46875 11.7578125 5.46875 11.7578125 9.46875 C6.1478125 9.46875 0.5378125 9.46875 -5.2421875 9.46875 C-3.79633912 0.79365975 -3.79633912 0.79365975 0 0 Z " fill="#F6F6F6" transform="translate(305.2421875,176.53125)"/>
<path d="M0 0 C0.66 0 1.32 0 2 0 C1.67 1.65 1.34 3.3 1 5 C7.6 5 14.2 5 21 5 C21 5.33 21 5.66 21 6 C14.4 6 7.8 6 1 6 C3.53263757 12.49621971 3.53263757 12.49621971 6 16 C11.88489457 16.5540567 11.88489457 16.5540567 17 14 C18.19232613 11.94996045 18.19232613 11.94996045 19 10 C19.99 10 20.98 10 22 10 C20.80862336 14.368381 19.87722517 17.47980364 16 20 C11.84806245 20.76332873 7.86289347 20.9781124 4.05078125 18.9765625 C1.39721597 16.85628032 0.07810201 15.23430603 -1 12 C-1.09338218 10.12686336 -1.12994843 8.25045638 -1.125 6.375 C-1.12757813 5.39273438 -1.13015625 4.41046875 -1.1328125 3.3984375 C-1 1 -1 1 0 0 Z " fill="#1B1819" transform="translate(298,182)"/>
<path d="M0 0 C1.32 0 2.64 0 4 0 C4 9.24 4 18.48 4 28 C2.68 28 1.36 28 0 28 C0 18.76 0 9.52 0 0 Z " fill="#504C4D" transform="translate(264,174)"/>
<path d="M0 0 C1.65 0 3.3 0 5 0 C5 4.29 5 8.58 5 13 C4.67 13 4.34 13 4 13 C3.67 9.7 3.34 6.4 3 3 C2.67 14.22 2.34 25.44 2 37 C1.34 37 0.68 37 0 37 C0 24.79 0 12.58 0 0 Z " fill="#0F8CCC" transform="translate(128,164)"/>
<path d="M0 0 C0.66 0 1.32 0 2 0 C2.33 12.21 2.66 24.42 3 37 C2.01 37 1.02 37 0 37 C0 24.79 0 12.58 0 0 Z " fill="#363334" transform="translate(273,164)"/>
<path d="M0 0 C0.35789474 5.36842105 0.35789474 5.36842105 -1.0625 7.875 C-4.06732099 9.61973477 -6.60810131 9.30835443 -10 9 C-10.66 8.34 -11.32 7.68 -12 7 C-11.625 4.375 -11.625 4.375 -11 2 C-9.5422647 1.664061 -8.08378894 1.33133376 -6.625 1 C-5.40683594 0.7215625 -5.40683594 0.7215625 -4.1640625 0.4375 C-2 0 -2 0 0 0 Z " fill="#E6F3F9" transform="translate(174,188)"/>
<path d="M0 0 C0.5625 1.9375 0.5625 1.9375 1 4 C0 5 0 5 -3.4375 5.3125 C-7.06564692 5.58329642 -7.06564692 5.58329642 -8.4375 8.0625 C-8.7159375 9.0215625 -8.7159375 9.0215625 -9 10 C-10.98 10 -12.96 10 -15 10 C-14.9375 7.25 -14.9375 7.25 -14 4 C-9.22817685 0.37341441 -6.0881848 -0.49699468 0 0 Z " fill="#319DD4" transform="translate(172,173)"/>
<path d="M0 0 C3.5625 0.1875 3.5625 0.1875 5.5625 2.1875 C5.5625 3.5075 5.5625 4.8275 5.5625 6.1875 C3.12862247 7.40443876 1.14411154 7.50709896 -1.5625 7.75 C-2.47257813 7.83378906 -3.38265625 7.91757813 -4.3203125 8.00390625 C-5.36832031 8.09478516 -5.36832031 8.09478516 -6.4375 8.1875 C-6.4375 7.5275 -6.4375 6.8675 -6.4375 6.1875 C-8.0875 6.1875 -9.7375 6.1875 -11.4375 6.1875 C-11.4375 5.8575 -11.4375 5.5275 -11.4375 5.1875 C-9.4575 5.1875 -7.4775 5.1875 -5.4375 5.1875 C-5.293125 4.548125 -5.14875 3.90875 -5 3.25 C-4.06391478 -0.18231248 -3.80693004 0.20765073 0 0 Z " fill="#E6F3F9" transform="translate(168.4375,177.8125)"/>
<path d="M0 0 C1.91595968 -0.08133791 3.83291932 -0.13934367 5.75 -0.1875 C7.35101563 -0.23970703 7.35101563 -0.23970703 8.984375 -0.29296875 C12.32860393 0.03192396 13.66540011 0.62050396 16 3 C16.25 5.6875 16.25 5.6875 16 8 C13.6875 8.25 13.6875 8.25 11 8 C10.54625 7.360625 10.0925 6.72125 9.625 6.0625 C8.04070794 3.59458849 8.04070794 3.59458849 4.3125 3.25 C3.219375 3.1675 2.12625 3.085 1 3 C0.67 2.01 0.34 1.02 0 0 Z " fill="#148FCD" transform="translate(78,175)"/>
<path d="M0 0 C2.5625 1.25 2.5625 1.25 4 3 C4.25 5.6875 4.25 5.6875 4 8 C3.01 8 2.02 8 1 8 C0.773125 7.35289062 0.54625 6.70578125 0.3125 6.0390625 C-0.82059068 3.75898117 -0.82059068 3.75898117 -3.3125 3.4609375 C-4.199375 3.43257812 -5.08625 3.40421875 -6 3.375 C-10.80664653 3.19335347 -10.80664653 3.19335347 -13 1 C-8.53136148 -1.63040313 -4.92620798 -1.09370856 0 0 Z " fill="#4E4B4C" transform="translate(226,174)"/>
<path d="M0 0 C0.90105469 0.01804688 1.80210937 0.03609375 2.73046875 0.0546875 C3.41753906 0.07789063 4.10460937 0.10109375 4.8125 0.125 C3.8225 1.61 3.8225 1.61 2.8125 3.125 C0.8671875 3.41796875 0.8671875 3.41796875 -1.3125 3.3125 C-2.59125 3.250625 -3.87 3.18875 -5.1875 3.125 C-5.5896875 4.3315625 -5.5896875 4.3315625 -6 5.5625 C-6.391875 6.408125 -6.78375 7.25375 -7.1875 8.125 C-8.1775 8.455 -9.1675 8.785 -10.1875 9.125 C-10.5175 12.755 -10.8475 16.385 -11.1875 20.125 C-11.5175 20.125 -11.8475 20.125 -12.1875 20.125 C-12.87610423 8.3039608 -12.87610423 8.3039608 -10.375 4.5 C-6.94920369 0.780564 -4.93700113 -0.1282338 0 0 Z " fill="#5D5A5A" transform="translate(308.1875,173.875)"/>
<path d="M0 0 C0.99 0 1.98 0 3 0 C1.80862336 4.368381 0.87722517 7.47980364 -3 10 C-6.36000139 10.3275473 -9.63582298 10.23112667 -13 10 C-12.01 9.67 -11.02 9.34 -10 9 C-10 8.34 -10 7.68 -10 7 C-9.05125 6.690625 -8.1025 6.38125 -7.125 6.0625 C-3.20855089 4.9272713 -3.20855089 4.9272713 -0.875 1.9375 C-0.58625 1.298125 -0.2975 0.65875 0 0 Z " fill="#484546" transform="translate(317,192)"/>
<path d="M0 0 C0.66 0 1.32 0 2 0 C2 2.31 2 4.62 2 7 C6.455 8.98 6.455 8.98 11 11 C11 11.33 11 11.66 11 12 C9.39482903 11.91266424 7.79078338 11.80447776 6.1875 11.6875 C4.84751953 11.60048828 4.84751953 11.60048828 3.48046875 11.51171875 C0.64719039 10.92721566 -0.36603241 10.37117856 -2 8 C-1.55555556 1.55555556 -1.55555556 1.55555556 0 0 Z " fill="#2C2829" transform="translate(213,176)"/>
<path d="M0 0 C4.54278036 3.59849455 8.12260408 6.93578319 11 12 C11 12.66 11 13.32 11 14 C9.68 14 8.36 14 7 14 C5.078125 11.69921875 5.078125 11.69921875 3.25 8.6875 C2.63640625 7.70136719 2.0228125 6.71523437 1.390625 5.69921875 C0 3 0 3 0 0 Z " fill="#3B3838" transform="translate(284,187)"/>
<path d="M0 0 C2 2 2 2 2 6 C-3.61 6 -9.22 6 -15 6 C-14.67 4.68 -14.34 3.36 -14 2 C-14 2.66 -14 3.32 -14 4 C-9.38 4 -4.76 4 0 4 C0 2.68 0 1.36 0 0 Z " fill="#C8C7C8" transform="translate(315,180)"/>
<path d="M0 0 C0.33 0 0.66 0 1 0 C1 6.6 1 13.2 1 20 C1.66 20 2.32 20 3 20 C3 20.66 3 21.32 3 22 C4.32 22 5.64 22 7 22 C7 22.66 7 23.32 7 24 C5.00045254 24.04254356 2.99958364 24.04080783 1 24 C0 23 0 23 -0.11352539 20.77514648 C-0.10828857 19.81680908 -0.10305176 18.85847168 -0.09765625 17.87109375 C-0.09443359 16.83662109 -0.09121094 15.80214844 -0.08789062 14.73632812 C-0.07951172 13.64771484 -0.07113281 12.55910156 -0.0625 11.4375 C-0.05798828 10.34501953 -0.05347656 9.25253906 -0.04882812 8.12695312 C-0.03699826 5.41791505 -0.02051543 2.70898401 0 0 Z " fill="#191516" transform="translate(238,177)"/>
<path d="M0 0 C0.103125 0.639375 0.20625 1.27875 0.3125 1.9375 C0.539375 2.618125 0.76625 3.29875 1 4 C1.99 4.33 2.98 4.66 4 5 C2.79444959 11.14830711 1.08441876 13.35248219 -4 17 C-4.66 16.67 -5.32 16.34 -6 16 C-5.04867187 15.20335937 -5.04867187 15.20335937 -4.078125 14.390625 C-1.53954807 11.47030718 -1.24589772 9.55188248 -0.75 5.75 C-0.60046875 4.67234375 -0.4509375 3.5946875 -0.296875 2.484375 C-0.19890625 1.66453125 -0.1009375 0.8446875 0 0 Z " fill="#DBEDF7" transform="translate(154,184)"/>
<path d="M0 0 C0.33 0.66 0.66 1.32 1 2 C0.34 2 -0.32 2 -1 2 C-1 2.66 -1 3.32 -1 4 C-6.94 2.515 -6.94 2.515 -13 1 C-11.68 0.67 -10.36 0.34 -9 0 C-5.49270578 -1.16909807 -3.55692677 -0.85056945 0 0 Z " fill="#615E5F" transform="translate(228,187)"/>
<path d="M0 0 C0.33 2.97 0.66 5.94 1 9 C0.67 9 0.34 9 0 9 C0 7.35 0 5.7 0 4 C-0.66 4 -1.32 4 -2 4 C-2 3.34 -2 2.68 -2 2 C-6.29 2.66 -10.58 3.32 -15 4 C-14.67 3.34 -14.34 2.68 -14 2 C-11.34765625 1.3671875 -11.34765625 1.3671875 -8.0625 0.875 C-6.98097656 0.70742187 -5.89945313 0.53984375 -4.78515625 0.3671875 C-2 0 -2 0 0 0 Z " fill="#4CAAD9" transform="translate(174,184)"/>
<path d="M0 0 C1.98 0 3.96 0 6 0 C6 2.64 6 5.28 6 8 C5.67 8 5.34 8 5 8 C5 6.02 5 4.04 5 2 C4.01 2 3.02 2 2 2 C2 3.98 2 5.96 2 8 C1.34 8 0.68 8 0 8 C0 5.36 0 2.72 0 0 Z " fill="#349ED4" transform="translate(197,166)"/>
<path d="M0 0 C0 0.99 0 1.98 0 3 C-1.98 3.33 -3.96 3.66 -6 4 C-6.33 4.99 -6.66 5.98 -7 7 C-7.99 6.34 -8.98 5.68 -10 5 C-4.5 0 -4.5 0 0 0 Z " fill="#413D3E" transform="translate(262,174)"/>
<path d="M0 0 C1.65 0 3.3 0 5 0 C5 0.66 5 1.32 5 2 C2.40759181 3.8597711 -0.14410847 5.57205423 -3 7 C-3.66 6.34 -4.32 5.68 -5 5 C-3.625 3.5 -3.625 3.5 -2 2 C-1.34 2 -0.68 2 0 2 C0 1.34 0 0.68 0 0 Z " fill="#504D4E" transform="translate(290,174)"/>
<path d="M0 0 C-1.77444972 2.24606427 -2.58352485 2.95081002 -5.48046875 3.29296875 C-6.37378906 3.25816406 -7.26710937 3.22335938 -8.1875 3.1875 C-9.08855469 3.16042969 -9.98960937 3.13335937 -10.91796875 3.10546875 C-11.94857422 3.05326172 -11.94857422 3.05326172 -13 3 C-13 2.34 -13 1.68 -13 1 C-8.62426048 0.40667939 -4.42471556 -0.13827236 0 0 Z " fill="#393536" transform="translate(228,199)"/>
<path d="M0 0 C2.01136276 2.55991624 3.62845496 5.04590299 5 8 C4.01 7.67 3.02 7.34 2 7 C1.67 7 1.34 7 1 7 C0.67 7.66 0.34 8.32 0 9 C-0.28875 8.38125 -0.5775 7.7625 -0.875 7.125 C-1.93720042 4.86674235 -1.93720042 4.86674235 -4 3 C-3.01 3 -2.02 3 -1 3 C-0.67 2.01 -0.34 1.02 0 0 Z " fill="#5F5C5D" transform="translate(284,183)"/>
<path d="M0 0 C0.90105469 0.01804688 1.80210937 0.03609375 2.73046875 0.0546875 C3.41753906 0.07789063 4.10460937 0.10109375 4.8125 0.125 C3.8225 1.61 3.8225 1.61 2.8125 3.125 C0.8671875 3.41796875 0.8671875 3.41796875 -1.3125 3.3125 C-2.59125 3.250625 -3.87 3.18875 -5.1875 3.125 C-5.5175 3.785 -5.8475 4.445 -6.1875 5.125 C-6.1875 4.465 -6.1875 3.805 -6.1875 3.125 C-6.8475 2.795 -7.5075 2.465 -8.1875 2.125 C-4.87379 -0.08414 -3.8428979 -0.09981553 0 0 Z " fill="#575454" transform="translate(308.1875,173.875)"/>
<path d="M0 0 C2.00841268 0.01421885 4.01537247 0.13420475 6.01953125 0.265625 C4.6043341 2.2999709 3.46971002 3.16972893 1.0390625 3.6875 C-0.96223829 3.92836452 -2.97146315 4.10095241 -4.98046875 4.265625 C-3.72152968 1.74774686 -2.88459378 0.38688832 0 0 Z " fill="#0E8CCC" transform="translate(139.98046875,174.734375)"/>
<path d="M0 0 C2.97 0 5.94 0 9 0 C8.01 1.485 8.01 1.485 7 3 C4.5 3.375 4.5 3.375 2 3 C1.34 2.01 0.68 1.02 0 0 Z " fill="#0E8CCC" transform="translate(106,175)"/>
<path d="M0 0 C0.433125 0.474375 0.86625 0.94875 1.3125 1.4375 C3.02309613 3.23686957 3.02309613 3.23686957 6 4 C6 4.66 6 5.32 6 6 C4.35 6 2.7 6 1 6 C-0.0625 4.125 -0.0625 4.125 -1 2 C-0.67 1.34 -0.34 0.68 0 0 Z " fill="#322F30" transform="translate(301,195)"/>
<path d="M0 0 C4.6875 3.61328125 4.6875 3.61328125 6 5 C6 5.99 6 6.98 6 8 C2.83884224 6.63016497 2.0072908 6.0109362 0 3 C0 2.01 0 1.02 0 0 Z " fill="#272324" transform="translate(284,187)"/>
<path d="M0 0 C1.32 0 2.64 0 4 0 C4 1.65 4 3.3 4 5 C2.68 5 1.36 5 0 5 C0 3.35 0 1.7 0 0 Z " fill="#4E4B4C" transform="translate(264,164)"/>
<path d="M0 0 C0.66 0 1.32 0 2 0 C2.36923077 5.53846154 2.36923077 5.53846154 0.5 7.875 C-0.2425 8.431875 -0.2425 8.431875 -1 9 C-1.09765625 2.84765625 -1.09765625 2.84765625 -1 1 C-0.67 0.67 -0.34 0.34 0 0 Z " fill="#231F20" transform="translate(298,182)"/>
<path d="M0 0 C0.99 0 1.98 0 3 0 C2.0022242 2.99332739 1.2477975 3.94766315 -1 6 C-1.99 5.67 -2.98 5.34 -4 5 C-2.1875 2.5 -2.1875 2.5 0 0 Z " fill="#2B2829" transform="translate(284,180)"/>
<path d="M0 0 C0.66 0 1.32 0 2 0 C2 0.66 2 1.32 2 2 C3.32 2 4.64 2 6 2 C6 2.66 6 3.32 6 4 C4.02 4 2.04 4 0 4 C-0.33 3.34 -0.66 2.68 -1 2 C-0.67 1.34 -0.34 0.68 0 0 Z " fill="#272324" transform="translate(239,197)"/>
</svg>
