<?xml version="1.0" encoding="UTF-8"?>
<svg version="1.1" xmlns="http://www.w3.org/2000/svg" width="614" height="172">
<path d="M0 0 C6.29472317 -0.05127681 12.58939126 -0.08597196 18.88427734 -0.10986328 C21.01971448 -0.11983745 23.15513827 -0.13342161 25.29052734 -0.15087891 C46.77271391 -0.32193145 46.77271391 -0.32193145 57.31298828 1.56079102 C60.9193325 2.15027068 64.35494846 2.07009715 68 2 C68.99 2.495 68.99 2.495 70 3 C70 3.66 70 4.32 70 5 C70.59425781 5.02578125 71.18851562 5.0515625 71.80078125 5.078125 C76.82217466 5.42173512 81.13669402 6.25538877 85.85546875 8.046875 C87.3098938 8.59359863 87.3098938 8.59359863 88.79370117 9.15136719 C89.52177979 9.43141602 90.2498584 9.71146484 91 10 C91.04644459 20.92716891 91.08193069 31.85431414 91.10362434 42.78156185 C91.11403886 47.85611915 91.12815535 52.93060866 91.15087891 58.00512695 C91.17269059 62.90696945 91.18458615 67.80874693 91.18975449 72.71063423 C91.19343533 74.57602524 91.20062295 76.44141289 91.21146011 78.30677605 C91.22608581 80.92977319 91.22797334 83.55250543 91.22705078 86.17553711 C91.23424133 86.9379924 91.24143188 87.70044769 91.24884033 88.48600769 C91.21892388 96.40301879 90.32297114 104.4974088 84.6875 110.4375 C83.02373423 112.02388132 81.35754364 113.60772899 79.6875 115.1875 C77.28603851 117.70065738 75.19629015 120.26177119 73.0625 123 C68.2355297 129.1062989 63.0681992 133.82791463 55.8125 136.9375 C53.85057406 137.85708875 53.85057406 137.85708875 53.125 139.875 C51.48296665 142.97661854 48.92597903 144.14887041 46 146 C45.46375 146.53625 44.9275 147.0725 44.375 147.625 C43 149 43 149 41.1796875 149.90625 C38.95910966 150.95817489 38.95910966 150.95817489 36.921875 152.4296875 C31.26037282 156.19723391 31.26037282 156.19723391 27.953125 155.6796875 C23.1646616 153.40037892 19.04824131 149.85049326 14.98046875 146.48828125 C12.97036496 144.81394101 12.97036496 144.81394101 10 144 C8.84908348 142.88293397 7.70347017 141.75971376 6.58984375 140.60546875 C4.59383451 138.58984272 2.53074107 136.66450784 0.4375 134.75 C-0.30628906 134.06421875 -1.05007812 133.3784375 -1.81640625 132.671875 C-3.8447762 130.87710286 -3.8447762 130.87710286 -6.15234375 130.515625 C-6.76207031 130.34546875 -7.37179688 130.1753125 -8 130 C-8.7099061 128.68917753 -9.3680681 127.35014232 -10 126 C-11.59257953 124.22166506 -13.24452096 122.49553496 -14.9375 120.8125 C-15.81277344 119.93207031 -16.68804687 119.05164063 -17.58984375 118.14453125 C-19.88364842 115.8196831 -19.88364842 115.8196831 -23 115 C-23.33 114.01 -23.66 113.02 -24 112 C-24.495 111.566875 -24.99 111.13375 -25.5 110.6875 C-27.619822 108.30270025 -27.57060324 106.1284621 -28 103 C-28.33434052 102.1230246 -28.66868103 101.24604919 -29.01315308 100.34249878 C-30.22808038 96.22748059 -30.26575507 92.59527664 -30.22705078 88.33251953 C-30.22734283 87.48308273 -30.22763489 86.63364594 -30.22793579 85.75846863 C-30.22654869 82.96647731 -30.21101678 80.17475688 -30.1953125 77.3828125 C-30.19158017 75.4408279 -30.18873423 73.49884141 -30.18673706 71.55685425 C-30.17911798 66.45722207 -30.1594843 61.35770466 -30.1373291 56.25811768 C-30.1168335 51.04969841 -30.10772741 45.84126051 -30.09765625 40.6328125 C-30.07623678 30.42182471 -30.04212166 20.21092191 -30 10 C-28.44146347 9.35356525 -26.88051212 8.71295111 -25.31860352 8.07470703 C-24.44961929 7.71732452 -23.58063507 7.35994202 -22.68531799 6.99172974 C-18.5283513 5.45649723 -14.28722015 4.66336535 -9.9375 3.875 C-8.25766301 3.56772823 -6.57916226 3.25302621 -4.90234375 2.9296875 C-4.17523193 2.79804199 -3.44812012 2.66639648 -2.69897461 2.53076172 C-2.13831299 2.35561035 -1.57765137 2.18045898 -1 2 C-0.67 1.34 -0.34 0.68 0 0 Z M89 11 C89 38.72 89 66.44 89 95 C89.33 95 89.66 95 90 95 C90 67.28 90 39.56 90 11 C89.67 11 89.34 11 89 11 Z M88 96 C89 100 89 100 89 100 Z M87 101 C88 103 88 103 88 103 Z M86 103 C87 105 87 105 87 105 Z " fill="#0C5E98" transform="translate(34,13)"/>
<path d="M0 0 C0.70189453 0.00902344 1.40378906 0.01804687 2.12695312 0.02734375 C3.85561525 0.05086296 5.58410145 0.08673287 7.3125 0.125 C7.3125 0.785 7.3125 1.445 7.3125 2.125 C8.08335937 2.40214844 8.85421875 2.67929687 9.6484375 2.96484375 C10.65132813 3.32707031 11.65421875 3.68929688 12.6875 4.0625 C13.68523437 4.42214844 14.68296875 4.78179687 15.7109375 5.15234375 C18.98693828 6.37715485 20.25195744 7.06290506 22.75 9.625 C25.12370237 12.30436637 25.12370237 12.30436637 28.3125 13.125 C29 15.1875 29 15.1875 29.3125 17.125 C28.260625 17.723125 27.20875 18.32125 26.125 18.9375 C23.16389522 20.62870009 20.22889064 22.35749052 17.3125 24.125 C16.79300781 23.64289062 16.27351562 23.16078125 15.73828125 22.6640625 C15.04089844 22.03242187 14.34351563 21.40078125 13.625 20.75 C12.59826172 19.81027344 12.59826172 19.81027344 11.55078125 18.8515625 C7.26774085 15.54771633 3.32511248 14.85110632 -2 14.5 C-3.60294922 14.38785156 -3.60294922 14.38785156 -5.23828125 14.2734375 C-6.04652344 14.22445312 -6.85476563 14.17546875 -7.6875 14.125 C-9.35860042 17.08678773 -10.01432752 19.49571192 -10.3125 22.875 C-10.38726562 23.67421875 -10.46203125 24.4734375 -10.5390625 25.296875 C-10.58804688 25.90015625 -10.63703125 26.5034375 -10.6875 27.125 C-10.0275 27.455 -9.3675 27.785 -8.6875 28.125 C-8.6875 28.785 -8.6875 29.445 -8.6875 30.125 C-6.67851559 30.79466147 -4.66945887 31.4641064 -2.66015625 32.1328125 C-0.43778877 32.8745751 1.78337042 33.61995957 4.00390625 34.3671875 C5.31510314 34.80729472 6.62630106 35.24739888 7.9375 35.6875 C9.78214844 36.30818359 9.78214844 36.30818359 11.6640625 36.94140625 C14.18132103 37.75803295 16.65091536 38.48738988 19.203125 39.16015625 C22.3125 40.125 22.3125 40.125 23.4375 42 C23.72625 42.70125 24.015 43.4025 24.3125 44.125 C26.84692406 46.35316986 26.84692406 46.35316986 29.3125 48.125 C29.250625 46.97 29.18875 45.815 29.125 44.625 C29.14065753 34.74510006 30.85488522 23.48197264 36.3125 15.125 C37.3025 14.795 38.2925 14.465 39.3125 14.125 C40.01375 13.2175 40.715 12.31 41.4375 11.375 C45.28452165 6.5223739 51.22511283 3.23179767 57.3125 2.125 C67.23073843 1.3051998 74.98964006 2.5764267 83.3125 8.125 C84.3025 8.62 84.3025 8.62 85.3125 9.125 C88.3125 11.125 88.3125 11.125 89.3125 14.125 C89.96285814 15.46636367 90.6287955 16.80032254 91.3125 18.125 C91.6425 18.785 91.9725 19.445 92.3125 20.125 C93.3025 21.115 93.3025 21.115 94.3125 22.125 C94.57128906 24.32397461 94.57128906 24.32397461 94.578125 27.02734375 C94.58070313 27.99994141 94.58328125 28.97253906 94.5859375 29.97460938 C94.57820312 30.99361328 94.57046875 32.01261719 94.5625 33.0625 C94.57023438 34.07763672 94.57796875 35.09277344 94.5859375 36.13867188 C94.58335937 37.11255859 94.58078125 38.08644531 94.578125 39.08984375 C94.57586914 39.9830835 94.57361328 40.87632324 94.57128906 41.79663086 C94.3125 44.125 94.3125 44.125 92.3125 47.125 C90.32565308 47.48576355 90.32565308 47.48576355 87.86279297 47.46557617 C86.94198944 47.46534958 86.02118591 47.46512299 85.07247925 47.46488953 C84.07660797 47.44940567 83.08073669 47.43392181 82.0546875 47.41796875 C81.03649933 47.41372391 80.01831116 47.40947906 78.9692688 47.40510559 C75.70841327 47.38827579 72.44816959 47.35061546 69.1875 47.3125 C66.98047766 47.29745874 64.77344566 47.28376937 62.56640625 47.27148438 C57.14822777 47.2383583 51.73040758 47.18811653 46.3125 47.125 C46.59540173 48.54707792 46.88760342 49.96730735 47.18359375 51.38671875 C47.34529053 52.17780029 47.5069873 52.96888184 47.67358398 53.78393555 C48.63542535 57.30823697 50.41928986 60.01036397 52.3125 63.125 C52.43238281 63.80433594 52.55226563 64.48367187 52.67578125 65.18359375 C53.14806445 67.28171707 53.14806445 67.28171707 55.1328125 68.390625 C62.56253123 71.56399639 67.92416542 71.94379047 75.515625 69.07421875 C78.59621602 67.44686306 80.08106809 65.56682455 81.6875 62.5 C83.3125 60.125 83.3125 60.125 85.5 59 C89.86841589 59.19415182 92.83072524 61.62814416 96.3125 64.125 C95.66188905 65.79799959 94.99216676 67.46359237 94.3125 69.125 C94.02375 69.846875 93.735 70.56875 93.4375 71.3125 C92.01900917 73.59784634 90.71339773 73.95018349 88.3125 75.125 C86.88638816 76.11148338 85.4701287 77.11231748 84.0625 78.125 C76.91774113 82.90371311 69.83247111 83.96155305 61.3125 83.125 C51.80832091 81.20453903 45.89790591 77.2259064 39.828125 69.734375 C39.32796875 69.20328125 38.8278125 68.6721875 38.3125 68.125 C37.6525 68.125 36.9925 68.125 36.3125 68.125 C34.6875 66.125 34.6875 66.125 33.3125 64.125 C32.9 65.1975 32.4875 66.27 32.0625 67.375 C29.36423716 74.39048339 22.68203642 77.84372366 16.3125 81.125 C5.97992458 85.24249246 -4.68358486 83.26984464 -14.6875 79.125 C-20.07451282 76.04175793 -23.95196445 72.02789041 -27.6875 67.125 C-26.9375 65.1875 -26.9375 65.1875 -25.6875 63.125 C-24.36155895 62.76337971 -23.02811543 62.42771961 -21.6875 62.125 C-21.3575 61.135 -21.0275 60.145 -20.6875 59.125 C-19.6975 58.795 -18.7075 58.465 -17.6875 58.125 C-17.625625 58.7025 -17.56375 59.28 -17.5 59.875 C-16.35246667 63.0527846 -14.39494923 64.173118 -11.6875 66.125 C-11.06875 66.66125 -10.45 67.1975 -9.8125 67.75 C-4.71252846 71.04998159 1.34713728 71.90309079 7.3125 71.125 C10.09700846 70.30154707 12.63484858 69.27256489 15.3125 68.125 C15.50851608 66.37593341 15.69397403 64.62568154 15.875 62.875 C15.97941406 61.90046875 16.08382812 60.9259375 16.19140625 59.921875 C16.36769548 56.39814173 16.36769548 56.39814173 15.3125 53.125 C11.03509372 49.6893323 5.62924269 48.584465 0.4375 47.125 C-5.47260626 45.44886942 -11.0830245 43.64773066 -16.6875 41.125 C-18.1725 40.63 -18.1725 40.63 -19.6875 40.125 C-20.0175 39.135 -20.3475 38.145 -20.6875 37.125 C-23.31856761 36.07229537 -23.31856761 36.07229537 -24.6875 36.125 C-24.63529297 37.32382813 -24.63529297 37.32382813 -24.58203125 38.546875 C-24.30745713 49.68673916 -26.02268759 59.43999814 -31.6875 69.125 C-32.6775 69.62 -32.6775 69.62 -33.6875 70.125 C-34.739375 71.2078125 -34.739375 71.2078125 -35.8125 72.3125 C-42.51818034 79.09707069 -48.81703788 83.06151767 -58.5625 83.4375 C-66.73355157 83.22703352 -72.6006487 80.64815065 -78.89453125 75.53515625 C-80.78772709 73.96072351 -80.78772709 73.96072351 -83.625 72.5625 C-85.6875 71.125 -85.6875 71.125 -86.375 68.5625 C-86.478125 67.758125 -86.58125 66.95375 -86.6875 66.125 C-87.3475 65.465 -88.0075 64.805 -88.6875 64.125 C-93.5060355 49.66939351 -91.77218535 35.60544005 -88.6875 21.125 C-88.52894531 20.37347656 -88.37039063 19.62195313 -88.20703125 18.84765625 C-87.30396142 15.85326682 -85.55428178 13.59574059 -83.6875 11.125 C-82.6975 10.795 -81.7075 10.465 -80.6875 10.125 C-80.0275 9.465 -79.3675 8.805 -78.6875 8.125 C-78.0275 7.465 -77.3675 6.805 -76.6875 6.125 C-76.3575 5.465 -76.0275 4.805 -75.6875 4.125 C-73.69928687 3.72735737 -71.69625442 3.40071139 -69.6875 3.125 C-69.06004883 2.95299072 -68.43259766 2.78098145 -67.78613281 2.60375977 C-65.43303226 2.06694844 -63.33427966 2.01187962 -60.921875 2.02734375 C-60.03242188 2.03056641 -59.14296875 2.03378906 -58.2265625 2.03710938 C-57.30617188 2.04548828 -56.38578125 2.05386719 -55.4375 2.0625 C-54.50164062 2.06701172 -53.56578125 2.07152344 -52.6015625 2.07617188 C-50.29680959 2.08793082 -47.99218773 2.10436574 -45.6875 2.125 C-45.1925 3.61 -45.1925 3.61 -44.6875 5.125 C-43.511875 5.24875 -43.511875 5.24875 -42.3125 5.375 C-39.6875 6.125 -39.6875 6.125 -38.625 7.9375 C-38.315625 8.659375 -38.00625 9.38125 -37.6875 10.125 C-36.39646357 11.4993291 -35.0618291 12.83396357 -33.6875 14.125 C-30.6875 17.125 -30.6875 17.125 -27.6875 20.125 C-27.32398438 19.18527344 -27.32398438 19.18527344 -26.953125 18.2265625 C-26.61796875 17.40929687 -26.2828125 16.59203125 -25.9375 15.75 C-25.61265625 14.93789063 -25.2878125 14.12578125 -24.953125 13.2890625 C-23.46473496 10.74409928 -22.36456861 10.23006902 -19.6875 9.125 C-18.00045807 7.81754251 -16.33389965 6.48327971 -14.6875 5.125 C-9.58026581 1.21946797 -6.46573244 -0.15696456 0 0 Z M-62.6875 12.125 C-62.6875 12.455 -62.6875 12.785 -62.6875 13.125 C-60.3775 13.125 -58.0675 13.125 -55.6875 13.125 C-55.6875 12.795 -55.6875 12.465 -55.6875 12.125 C-57.9975 12.125 -60.3075 12.125 -62.6875 12.125 Z M-3.6875 12.125 C-3.6875 12.455 -3.6875 12.785 -3.6875 13.125 C-1.3775 13.125 0.9325 13.125 3.3125 13.125 C3.3125 12.795 3.3125 12.465 3.3125 12.125 C1.0025 12.125 -1.3075 12.125 -3.6875 12.125 Z M60.3125 12.125 C60.3125 12.455 60.3125 12.785 60.3125 13.125 C62.6225 13.125 64.9325 13.125 67.3125 13.125 C67.3125 12.795 67.3125 12.465 67.3125 12.125 C65.0025 12.125 62.6925 12.125 60.3125 12.125 Z M54.6015625 14.4453125 C54.17617188 14.99960937 53.75078125 15.55390625 53.3125 16.125 C52.66087891 16.87136719 52.66087891 16.87136719 51.99609375 17.6328125 C48.05792268 22.74379314 47.85729946 25.17340243 46.3125 32.125 C57.8625 32.125 69.4125 32.125 81.3125 32.125 C79.5981331 22.74464334 79.5981331 22.74464334 74.375 15.3125 C70.47047828 13.06444204 66.70506428 12.94124631 62.25 12.875 C61.20714844 12.84921875 60.16429687 12.8234375 59.08984375 12.796875 C56.32380849 12.88249831 56.32380849 12.88249831 54.6015625 14.4453125 Z M-71.6875 17.125 C-79.23365286 26.90705001 -79.70606217 39.30859522 -78.6875 51.125 C-77.27005407 58.16600858 -75.06201328 64.25044144 -69.6875 69.125 C-64.88881665 71.79093519 -61.15004307 72.71027247 -55.6875 72.125 C-52.19499794 71.0198675 -49.31419243 69.75169243 -46.6875 67.125 C-46.6875 66.465 -46.6875 65.805 -46.6875 65.125 C-45.48368706 62.65518452 -44.18123665 60.24726864 -42.87890625 57.828125 C-37.88427481 46.49604318 -40.54374914 32.62431063 -44.67578125 21.453125 C-45.96007846 18.4977538 -47.44030553 16.43640003 -49.6875 14.125 C-56.44220722 12.09169527 -65.42727651 14.15139384 -71.6875 17.125 Z M-24.6875 14.125 C-23.6875 16.125 -23.6875 16.125 -23.6875 16.125 Z M-25.6875 17.125 C-24.6875 21.125 -24.6875 21.125 -24.6875 21.125 Z M-26.6875 22.125 C-25.6875 26.125 -25.6875 26.125 -25.6875 26.125 Z M92.3125 23.125 C93.3125 26.125 93.3125 26.125 93.3125 26.125 Z M-29.6875 24.125 C-28.6875 26.125 -28.6875 26.125 -28.6875 26.125 Z M46.3125 24.125 C47.3125 26.125 47.3125 26.125 47.3125 26.125 Z M45.3125 26.125 C46.3125 29.125 46.3125 29.125 46.3125 29.125 Z M-41.6875 27.125 C-40.6875 29.125 -40.6875 29.125 -40.6875 29.125 Z M-28.6875 27.125 C-27.6875 30.125 -27.6875 30.125 -27.6875 30.125 Z M-25.6875 27.125 C-24.6875 31.125 -24.6875 31.125 -24.6875 31.125 Z M32.3125 27.125 C33.3125 31.125 33.3125 31.125 33.3125 31.125 Z M-40.6875 30.125 C-40.6875 31.775 -40.6875 33.425 -40.6875 35.125 C-40.3575 35.125 -40.0275 35.125 -39.6875 35.125 C-39.6875 33.475 -39.6875 31.825 -39.6875 30.125 C-40.0175 30.125 -40.3475 30.125 -40.6875 30.125 Z M-27.6875 30.125 C-27.6875 32.105 -27.6875 34.085 -27.6875 36.125 C-27.3575 36.125 -27.0275 36.125 -26.6875 36.125 C-26.6875 34.145 -26.6875 32.165 -26.6875 30.125 C-27.0175 30.125 -27.3475 30.125 -27.6875 30.125 Z M44.3125 30.125 C45.3125 32.125 45.3125 32.125 45.3125 32.125 Z M31.3125 31.125 C31.3125 38.055 31.3125 44.985 31.3125 52.125 C31.6425 52.125 31.9725 52.125 32.3125 52.125 C32.3125 45.195 32.3125 38.265 32.3125 31.125 C31.9825 31.125 31.6525 31.125 31.3125 31.125 Z M44.3125 33.125 C44.3125 33.455 44.3125 33.785 44.3125 34.125 C56.5225 34.125 68.7325 34.125 81.3125 34.125 C81.3125 33.795 81.3125 33.465 81.3125 33.125 C69.1025 33.125 56.8925 33.125 44.3125 33.125 Z M-39.6875 36.125 C-39.6875 40.415 -39.6875 44.705 -39.6875 49.125 C-39.3575 49.125 -39.0275 49.125 -38.6875 49.125 C-38.6875 44.835 -38.6875 40.545 -38.6875 36.125 C-39.0175 36.125 -39.3475 36.125 -39.6875 36.125 Z M-26.6875 37.125 C-26.6875 40.425 -26.6875 43.725 -26.6875 47.125 C-26.3575 47.125 -26.0275 47.125 -25.6875 47.125 C-25.6875 43.825 -25.6875 40.525 -25.6875 37.125 C-26.0175 37.125 -26.3475 37.125 -26.6875 37.125 Z M-27.6875 48.125 C-27.6875 50.105 -27.6875 52.085 -27.6875 54.125 C-27.3575 54.125 -27.0275 54.125 -26.6875 54.125 C-26.6875 52.145 -26.6875 50.165 -26.6875 48.125 C-27.0175 48.125 -27.3475 48.125 -27.6875 48.125 Z M44.3125 48.125 C44.3125 49.775 44.3125 51.425 44.3125 53.125 C44.6425 53.125 44.9725 53.125 45.3125 53.125 C45.3125 51.475 45.3125 49.825 45.3125 48.125 C44.9825 48.125 44.6525 48.125 44.3125 48.125 Z M-40.6875 50.125 C-39.6875 54.125 -39.6875 54.125 -39.6875 54.125 Z M30.3125 52.125 C31.3125 55.125 31.3125 55.125 31.3125 55.125 Z M-28.6875 55.125 C-27.6875 58.125 -27.6875 58.125 -27.6875 58.125 Z M32.3125 55.125 C31.10688816 56.10767859 31.10688816 56.10767859 31.21484375 57.97265625 C31.22644531 58.70355469 31.23804688 59.43445313 31.25 60.1875 C31.270625 61.486875 31.29125 62.78625 31.3125 64.125 C31.6425 64.125 31.9725 64.125 32.3125 64.125 C32.6425 61.155 32.9725 58.185 33.3125 55.125 C32.9825 55.125 32.6525 55.125 32.3125 55.125 Z M33.3125 58.125 C34.3125 60.125 34.3125 60.125 34.3125 60.125 Z M-29.6875 59.125 C-28.6875 61.125 -28.6875 61.125 -28.6875 61.125 Z M18.3125 59.125 C19.3125 61.125 19.3125 61.125 19.3125 61.125 Z M-31.6875 64.125 C-30.6875 66.125 -30.6875 66.125 -30.6875 66.125 Z M30.3125 64.125 C31.3125 67.125 31.3125 67.125 31.3125 67.125 Z M29.3125 67.125 C30.3125 69.125 30.3125 69.125 30.3125 69.125 Z " fill="#000102" transform="translate(496.6875,27.875)"/>
<path d="M0 0 C9.50962276 -0.20723149 18.53774896 0.00858527 27.95703125 1.55859375 C31.6946116 2.10075881 35.23236508 2.07245452 39 2 C39.66 2.33 40.32 2.66 41 3 C41 3.66 41 4.32 41 5 C41.59425781 5.02578125 42.18851563 5.0515625 42.80078125 5.078125 C47.82217466 5.42173512 52.13669402 6.25538877 56.85546875 8.046875 C58.3098938 8.59359863 58.3098938 8.59359863 59.79370117 9.15136719 C60.52177979 9.43141602 61.2498584 9.71146484 62 10 C62.04644459 20.92716891 62.08193069 31.85431414 62.10362434 42.78156185 C62.11403886 47.85611915 62.12815535 52.93060866 62.15087891 58.00512695 C62.17269059 62.90696945 62.18458615 67.80874693 62.18975449 72.71063423 C62.19343533 74.57602524 62.20062295 76.44141289 62.21146011 78.30677605 C62.22608581 80.92977319 62.22797334 83.55250543 62.22705078 86.17553711 C62.23424133 86.9379924 62.24143188 87.70044769 62.24884033 88.48600769 C62.21892388 96.40301879 61.32297114 104.4974088 55.6875 110.4375 C54.02373423 112.02388132 52.35754364 113.60772899 50.6875 115.1875 C48.28603851 117.70065738 46.19629015 120.26177119 44.0625 123 C39.2355297 129.1062989 34.0681992 133.82791463 26.8125 136.9375 C24.85057406 137.85708875 24.85057406 137.85708875 24.125 139.875 C22.48296665 142.97661854 19.92597903 144.14887041 17 146 C16.46375 146.53625 15.9275 147.0725 15.375 147.625 C13.73122612 149.26877388 12.0814181 149.96300777 10 151 C9.29101562 151.46019531 8.58203125 151.92039063 7.8515625 152.39453125 C5.5931077 153.83281036 3.5115307 155.0630559 1 156 C-2.5625 154.8125 -2.5625 154.8125 -5 153 C-3.02 152.01 -3.02 152.01 -1 151 C-0.31391007 133.28520224 0.19052832 115.56359618 0.60549927 97.84051514 C0.66012942 95.57337383 0.71845384 93.3063185 0.78048706 91.03936768 C0.86773346 87.81676101 0.94134249 84.59410732 1.01171875 81.37109375 C1.0407428 80.39827957 1.06976685 79.42546539 1.09967041 78.423172 C1.18588282 73.8291395 1.24419973 70.15887001 -1 66 C-1.98111975 68.1032567 -2.95983134 70.20763689 -3.9375 72.3125 C-4.48277344 73.48425781 -5.02804688 74.65601562 -5.58984375 75.86328125 C-7.03484939 78.93693062 -7.03484939 78.93693062 -8 82 C-8.763125 82.598125 -9.52625 83.19625 -10.3125 83.8125 C-13.27866882 86.22682346 -14.90934809 88.82797641 -17 92 C-17.66 92 -18.32 92 -19 92 C-18.42449593 88.13381516 -17.30615377 85.46641208 -15.234375 82.1640625 C-14.67363281 81.26429687 -14.11289062 80.36453125 -13.53515625 79.4375 C-12.94605469 78.509375 -12.35695313 77.58125 -11.75 76.625 C-11.17636719 75.70460938 -10.60273437 74.78421875 -10.01171875 73.8359375 C-6.83146883 68.76492396 -3.53794914 63.82810353 0 59 C3.84871115 62.41036136 6.07262136 66.26678716 8.5625 70.6875 C12.66528059 77.84120631 17.01791479 84.78228702 21.59594727 91.64135742 C25 96.79332072 25 96.79332072 25 99 C32.26 99 39.52 99 47 99 C41.07454843 88.81238151 34.73880994 79.06369688 27.96655273 69.41552734 C27.33821533 68.51141113 26.70987793 67.60729492 26.0625 66.67578125 C25.49660156 65.87052002 24.93070313 65.06525879 24.34765625 64.2355957 C23.03046253 62.05053358 22.28145599 60.52767287 22 58 C24.82246967 51.24228541 28.95500783 45.34791165 33.0625 39.3125 C34.30438949 37.47593897 35.54530788 35.63872083 36.78515625 33.80078125 C37.33051025 32.99809814 37.87586426 32.19541504 38.43774414 31.3684082 C40.02839528 28.95695224 41.51371349 26.47714418 43 24 C35.74 24 28.48 24 21 24 C20.34 25.65 19.68 27.3 19 29 C17.44702457 31.43299484 15.72694108 33.68226329 14 36 C9.53364288 35.34638676 5.32939946 34.26638795 1 33 C0.23629361 21.98080785 -0.13379211 11.04528196 0 0 Z M60 11 C60 38.72 60 66.44 60 95 C60.33 95 60.66 95 61 95 C61 67.28 61 39.56 61 11 C60.67 11 60.34 11 60 11 Z M59 96 C60 100 60 100 60 100 Z M58 101 C59 103 59 103 59 103 Z M57 103 C58 105 58 105 58 105 Z " fill="#094774" transform="translate(63,13)"/>
<path d="M0 0 C7.26485794 -0.86002611 14.80719517 -1.66807733 22 0 C26.12700109 3.37806561 27.83177056 7.02169658 29.95019531 11.82958984 C31.9110496 15.88354208 34.54472781 19.52650044 37.0625 23.25 C38.01824036 24.68839631 38.96798585 26.13080385 39.91015625 27.578125 C40.31371338 28.19075195 40.71727051 28.80337891 41.13305664 29.43457031 C42 31 42 31 42 33 C46.09806124 29.40100009 48.55536732 25.06887138 51.3125 20.4375 C51.80903076 19.63844238 52.30556152 18.83938477 52.81713867 18.01611328 C54.98600256 14.50839644 56.92064626 11.19197818 58.5 7.37109375 C60.0264023 3.88671708 60.84518383 2.17654231 64 0 C71.24254142 -1.31037585 78.71351934 -0.66647482 86 0 C84.67407505 3.62277431 83.06272652 6.62277665 80.8828125 9.80078125 C79.97208984 11.14366211 79.97208984 11.14366211 79.04296875 12.51367188 C77.7722838 14.36794024 76.50145233 16.2221082 75.23046875 18.07617188 C68.50420272 26.8261492 68.50420272 26.8261492 66.40625 37.0078125 C68.47100938 40.88429702 70.89108487 44.34823887 73.5 47.875 C77.77202813 53.78515958 81.87931082 59.75601504 85.75 65.9375 C86.17990234 66.61731934 86.60980469 67.29713867 87.05273438 67.99755859 C90 72.74850207 90 72.74850207 90 75 C82.72420791 76.55546604 75.107687 77.68929565 68 75 C61.75400399 69.42726366 58.20482928 61.4638164 54.54394531 54.06591797 C52.44378595 49.89548766 50.02783505 45.96092199 47.5625 42 C46.85221221 40.81444498 46.14476708 39.62717768 45.44140625 38.4375 C44.96574219 37.633125 44.49007812 36.82875 44 36 C41.74026546 38.12053456 40.07234453 40.26066351 38.43359375 42.88671875 C37.95253174 43.65322754 37.47146973 44.41973633 36.97583008 45.20947266 C36.46818115 46.02722168 35.96053223 46.8449707 35.4375 47.6875 C34.91244873 48.52587402 34.38739746 49.36424805 33.84643555 50.22802734 C32.2267592 52.81609195 30.61269059 55.4075777 29 58 C27.54561287 60.33477241 26.09083453 62.66929756 24.63500977 65.00317383 C23.76658529 66.39646847 22.89983123 67.79080593 22.03491211 69.1862793 C19.10944863 73.89055137 19.10944863 73.89055137 18 75 C16.36527118 75.08700342 14.72685945 75.10701063 13.08984375 75.09765625 C12.10048828 75.09443359 11.11113281 75.09121094 10.09179688 75.08789062 C9.05087891 75.07951172 8.00996094 75.07113281 6.9375 75.0625 C5.89271484 75.05798828 4.84792969 75.05347656 3.77148438 75.04882812 C1.1809334 75.03699913 -1.40950559 75.02051689 -4 75 C-2.61022401 71.39039619 -1.0981875 68.50278289 1.1875 65.375 C4.32616192 60.99381625 7.23367875 56.51674091 10.0859375 51.9453125 C11.50405155 49.76315334 12.94890466 47.65740859 14.4765625 45.5546875 C14.89502441 44.97372314 15.31348633 44.39275879 15.74462891 43.79418945 C16.94506499 42.13827869 18.15970937 40.49269604 19.375 38.84765625 C21.24048581 36.25342275 21.24048581 36.25342275 20.72241211 34.03222656 C19.51537469 30.63669447 17.49506198 27.70681059 15.5625 24.6875 C15.12309082 23.99197021 14.68368164 23.29644043 14.23095703 22.57983398 C10.59849727 16.86035395 6.85558247 11.21509032 3.04907227 5.61010742 C0 1.10184944 0 1.10184944 0 0 Z " fill="#C6C8C9" transform="translate(20,37)"/>
<path d="M0 0 C0.79325684 -0.00580078 1.58651367 -0.01160156 2.40380859 -0.01757812 C8.12508454 0.10495938 8.12508454 0.10495938 10.11743164 1.90429688 C10.5943042 2.43087891 11.07117676 2.95746094 11.5625 3.5 C12.5525 4.16 13.5425 4.82 14.5625 5.5 C16.1288494 7.2662221 17.5898218 9.09672339 19.0625 10.94140625 C20.58594759 12.76573977 20.58594759 12.76573977 23.5625 13.5 C24.4765625 16.046875 24.4765625 16.046875 25.1875 19.25 C25.42726563 20.29671875 25.66703125 21.3434375 25.9140625 22.421875 C26.12804687 23.43765625 26.34203125 24.4534375 26.5625 25.5 C26.75070312 26.24378906 26.93890625 26.98757812 27.1328125 27.75390625 C27.80602145 32.05632347 27.78798531 36.33920637 27.8125 40.6875 C27.833125 41.58275391 27.85375 42.47800781 27.875 43.40039062 C27.9422763 55.04759961 24.40761507 64.20356719 16.48828125 72.734375 C10.56411258 78.40007209 4.80640808 81.45056117 -3.4375 81.875 C-7.29712148 81.72862713 -10.6684067 80.61371538 -14.26171875 79.25390625 C-16.8641685 78.29702781 -16.8641685 78.29702781 -21.4375 77.5 C-21.4375 84.76 -21.4375 92.02 -21.4375 99.5 C-25.62212795 101.59231398 -30.75894372 100.5 -35.4375 100.5 C-35.4375 67.83 -35.4375 35.16 -35.4375 1.5 C-23.4375 1.5 -23.4375 1.5 -21.4375 2.5 C-20.4475 3.985 -20.4475 3.985 -19.4375 5.5 C-18.92445313 5.1390625 -18.41140625 4.778125 -17.8828125 4.40625 C-11.92927312 0.79804431 -6.82292542 0.00545507 0 0 Z M-8.4375 10.5 C-8.4375 10.83 -8.4375 11.16 -8.4375 11.5 C-6.1275 11.5 -3.8175 11.5 -1.4375 11.5 C-1.4375 11.17 -1.4375 10.84 -1.4375 10.5 C-3.7475 10.5 -6.0575 10.5 -8.4375 10.5 Z M-20.06176758 17.54663086 C-22.00320012 21.71442314 -21.99229656 25.51964925 -22.08984375 30.0703125 C-22.11728165 30.98835663 -22.14471954 31.90640076 -22.17298889 32.8522644 C-22.22621061 34.78690228 -22.27198836 36.7217575 -22.31079102 38.65673828 C-22.37495091 41.62273078 -22.4761738 44.58594632 -22.58007812 47.55078125 C-22.62724913 49.43223662 -22.67224592 51.31374803 -22.71484375 53.1953125 C-22.74795151 54.0828421 -22.78105927 54.9703717 -22.81517029 55.88479614 C-23.02634565 60.65753323 -23.02634565 60.65753323 -20.56591797 64.49487305 C-19.86354004 64.82656494 -19.16116211 65.15825684 -18.4375 65.5 C-17.66792969 65.95761719 -16.89835937 66.41523437 -16.10546875 66.88671875 C-11.0578097 69.53375885 -7.25717673 71.45231074 -1.4375 70.5 C5.01352019 68.31078181 5.01352019 68.31078181 9.5625 63.5 C9.2325 62.84 8.9025 62.18 8.5625 61.5 C10.0475 61.005 10.0475 61.005 11.5625 60.5 C11.2325 59.51 10.9025 58.52 10.5625 57.5 C11.2225 57.17 11.8825 56.84 12.5625 56.5 C14.62843336 45.76104453 14.21905362 33.25197068 12.5625 22.5 C11.9025 21.84 11.2425 21.18 10.5625 20.5 C8.42311834 17.89262861 6.43461328 15.30816992 4.5625 12.5 C1.73510006 12.00192427 -0.84022002 11.71323835 -3.6875 11.5625 C-4.43902344 11.49482422 -5.19054687 11.42714844 -5.96484375 11.35742188 C-12.20037053 10.9819844 -16.04504495 12.48542752 -20.06176758 17.54663086 Z M12.5625 25.5 C12.8925 28.47 13.2225 31.44 13.5625 34.5 C13.8925 34.5 14.2225 34.5 14.5625 34.5 C14.72927282 31.08343976 14.72927282 31.08343976 14.5625 27.5 C13.9025 26.84 13.2425 26.18 12.5625 25.5 Z M14.5625 34.5 C14.2325 40.44 13.9025 46.38 13.5625 52.5 C13.8925 52.5 14.2225 52.5 14.5625 52.5 C15.51869733 48.50204108 15.6664592 44.79196078 15.625 40.6875 C15.61597656 39.52605469 15.60695313 38.36460938 15.59765625 37.16796875 C15.58605469 36.28753906 15.57445312 35.40710938 15.5625 34.5 C15.2325 34.5 14.9025 34.5 14.5625 34.5 Z " fill="#000203" transform="translate(375.4375,29.5)"/>
<path d="M0 0 C0.474375 0.5775 0.94875 1.155 1.4375 1.75 C2.6440625 2.925625 2.6440625 2.925625 3.875 4.125 C8.02543897 8.37666919 10.87116602 12.39417256 13.4375 17.75 C13.97375 18.513125 14.51 19.27625 15.0625 20.0625 C17.02256244 23.89353113 17.21032815 27.49569088 17.4375 31.75 C17.49035156 32.56726562 17.54320312 33.38453125 17.59765625 34.2265625 C17.82336188 40.25192137 17.82336188 40.25192137 16.20219421 42.34455872 C13.95823109 44.1317003 12.72191353 44.1433642 9.87426758 44.18237305 C8.95353958 44.20216721 8.03281158 44.22196136 7.08418274 44.24235535 C6.09347275 44.24874527 5.10276276 44.25513519 4.08203125 44.26171875 C3.06525803 44.27966995 2.0484848 44.29762115 1.00090027 44.31611633 C-2.24935752 44.3703354 -5.4994675 44.40415259 -8.75 44.4375 C-10.95249458 44.47066279 -13.15496963 44.50515147 -15.35742188 44.54101562 C-20.75898204 44.62606832 -26.16056106 44.69436898 -31.5625 44.75 C-31.26770244 46.17025064 -30.96707256 47.58929131 -30.6640625 49.0078125 C-30.49729004 49.79816895 -30.33051758 50.58852539 -30.15869141 51.40283203 C-29.59710397 53.61376634 -28.87476545 55.55021756 -27.9375 57.625 C-26.5625 60.75 -26.5625 60.75 -26.5625 63.75 C-24.90265202 64.43346682 -23.23413195 65.09588315 -21.5625 65.75 C-20.139375 66.306875 -20.139375 66.306875 -18.6875 66.875 C-11.95817815 68.75921012 -7.11776859 67.48901815 -0.796875 65.015625 C3.00321237 62.86312796 4.64005014 59.62143047 6.4375 55.75 C9.53839634 55.76300166 12.44357883 55.90596903 15.4375 56.75 C17.5 59.8125 17.5 59.8125 18.4375 62.75 C17.7775 63.41 17.1175 64.07 16.4375 64.75 C15.715625 65.4925 14.99375 66.235 14.25 67 C12.8578125 68.36125 12.8578125 68.36125 11.4375 69.75 C10.94378906 70.25144531 10.45007813 70.75289063 9.94140625 71.26953125 C3.76494603 77.12013506 -3.63545216 79.91131952 -12.125 80.1875 C-17.60813623 79.9760076 -22.41831993 78.56082346 -27.5625 76.75 C-29.295 76.2859375 -29.295 76.2859375 -31.0625 75.8125 C-34.093766 74.52421195 -34.24536526 73.64769644 -35.5625 70.75 C-36.42875 70.234375 -37.295 69.71875 -38.1875 69.1875 C-38.97125 68.713125 -39.755 68.23875 -40.5625 67.75 C-40.5625 66.76 -40.5625 65.77 -40.5625 64.75 C-41.18125 63.780625 -41.8 62.81125 -42.4375 61.8125 C-49.66925759 49.55441444 -47.37501433 31.77748426 -44.01953125 18.62109375 C-43.2829954 15.96845711 -42.43300299 13.36150898 -41.5625 10.75 C-40.5725 10.42 -39.5825 10.09 -38.5625 9.75 C-38.2325 8.76 -37.9025 7.77 -37.5625 6.75 C-35.875 5.8125 -35.875 5.8125 -33.5625 4.75 C-32.61375 4.09 -31.665 3.43 -30.6875 2.75 C-25.49313095 -0.57439619 -20.66841412 -1.52910004 -14.5625 -1.9375 C-13.386875 -2.02386719 -12.21125 -2.11023438 -11 -2.19921875 C-2.89862273 -2.31889819 -2.89862273 -2.31889819 0 0 Z M-21.5625 10.75 C-22.243125 11.08 -22.92375 11.41 -23.625 11.75 C-26.66294664 13.31797246 -27.47527743 14.48833229 -28.5625 17.75 C-29.2225 17.75 -29.8825 17.75 -30.5625 17.75 C-31.82336514 21.69020358 -31.5625 24.22580299 -31.5625 28.75 C-21.0025 28.75 -10.4425 28.75 0.4375 28.75 C-0.45933758 20.67846181 -1.12272134 16.8777344 -6.125 10.875 C-8.74442141 8.82501803 -11.36096151 8.5928176 -14.5625 8.5625 C-15.5834375 8.54123047 -15.5834375 8.54123047 -16.625 8.51953125 C-18.88864132 8.64059589 -18.88864132 8.64059589 -21.5625 10.75 Z M0.4375 19.75 C1.4375 22.75 1.4375 22.75 1.4375 22.75 Z M-32.5625 22.75 C-31.5625 25.75 -31.5625 25.75 -31.5625 25.75 Z M1.4375 22.75 C1.4375 24.73 1.4375 26.71 1.4375 28.75 C1.7675 28.75 2.0975 28.75 2.4375 28.75 C2.4375 26.77 2.4375 24.79 2.4375 22.75 C2.1075 22.75 1.7775 22.75 1.4375 22.75 Z M14.4375 22.75 C14.4375 25.39 14.4375 28.03 14.4375 30.75 C14.7675 30.75 15.0975 30.75 15.4375 30.75 C15.4375 28.11 15.4375 25.47 15.4375 22.75 C15.1075 22.75 14.7775 22.75 14.4375 22.75 Z M-33.5625 25.75 C-32.5625 28.75 -32.5625 28.75 -32.5625 28.75 Z M-33.5625 29.75 C-33.5625 30.08 -33.5625 30.41 -33.5625 30.75 C-21.3525 30.75 -9.1425 30.75 3.4375 30.75 C3.4375 30.42 3.4375 30.09 3.4375 29.75 C-8.7725 29.75 -20.9825 29.75 -33.5625 29.75 Z M-34.5625 43.75 C-33.5625 45.75 -33.5625 45.75 -33.5625 45.75 Z M-33.5625 45.75 C-33.5625 47.4 -33.5625 49.05 -33.5625 50.75 C-33.2325 50.75 -32.9025 50.75 -32.5625 50.75 C-32.5625 49.1 -32.5625 47.45 -32.5625 45.75 C-32.8925 45.75 -33.2225 45.75 -33.5625 45.75 Z M-31.5625 53.75 C-30.5625 55.75 -30.5625 55.75 -30.5625 55.75 Z " fill="#000204" transform="translate(256.5625,31.25)"/>
<path d="M0 0 C2.0622048 -0.054348 4.12482816 -0.09294961 6.1875 -0.125 C7.33605469 -0.14820312 8.48460937 -0.17140625 9.66796875 -0.1953125 C12.96222999 -0.00221395 15.12012405 0.41001364 18 2 C18.495 3.485 18.495 3.485 19 5 C20.96185416 6.71140469 22.96302383 8.37873325 25 10 C29.39363499 14.39363499 30.85951237 17.63647911 31.12025452 23.87910461 C31.11803391 24.93389511 31.11581329 25.98868561 31.11352539 27.07543945 C31.11344986 28.27630692 31.11337433 29.47717438 31.11329651 30.71443176 C31.10813522 32.00105209 31.10297394 33.28767242 31.09765625 34.61328125 C31.09578956 35.95134936 31.09436684 37.28941815 31.09336853 38.62748718 C31.08956314 42.1373587 31.07974988 45.64718839 31.06866455 49.15704346 C31.05840777 52.74336176 31.05386179 56.32968686 31.04882812 59.91601562 C31.03812572 66.94402926 31.02054506 73.97200831 31 81 C25.72 81 20.44 81 15 81 C14.97494385 79.20860596 14.9498877 77.41721191 14.92407227 75.5715332 C14.84008268 69.6442861 14.75182052 63.71711545 14.66066074 57.78997517 C14.60556145 54.19733457 14.55216279 50.60468566 14.50268555 47.01196289 C14.45484961 43.54300815 14.4025009 40.07414786 14.34705925 36.60530663 C14.31684397 34.64172715 14.29126902 32.67807805 14.26576233 30.71443176 C14.2358445 28.91313057 14.2358445 28.91313057 14.20532227 27.07543945 C14.18977798 26.02064896 14.1742337 24.96585846 14.15821838 23.87910461 C14.00860517 21.15658845 13.60970298 18.65359342 13 16 C2.37895288 13.50139421 2.37895288 13.50139421 -7.75 16.625 C-10.79446597 18.74784192 -13.03109005 20.84878577 -15 24 C-15.42531678 26.65482813 -15.42531678 26.65482813 -15.32470703 29.57885742 C-15.32125275 30.69648972 -15.31779846 31.81412201 -15.3142395 32.96562195 C-15.29561859 34.16677139 -15.27699768 35.36792084 -15.2578125 36.60546875 C-15.25119598 37.8404158 -15.24457947 39.07536285 -15.23776245 40.34773254 C-15.21831609 43.62397863 -15.18643374 46.89977683 -15.14770508 50.17584229 C-15.09547298 54.80357772 -15.06356773 59.43147421 -15.03366089 64.05940247 C-15.01660209 66.52339231 -14.99339508 68.98734825 -14.96365356 71.45121765 C-14.95389496 72.55939346 -14.94413635 73.66756927 -14.93408203 74.80932617 C-14.92281281 75.78987473 -14.91154358 76.77042328 -14.89993286 77.78068542 C-15 80 -15 80 -16 81 C-19.96 81 -23.92 81 -28 81 C-28 55.26 -28 29.52 -28 3 C-24.04 3 -20.08 3 -16 3 C-15.34 4.98 -14.68 6.96 -14 9 C-11.00602162 6.94388244 -11.00602162 6.94388244 -9 4 C-7.00239695 3.65259077 -5.00212229 3.32033957 -3 3 C-2.01 2.34 -1.02 1.68 0 1 C0 0.67 0 0.34 0 0 Z M2 12 C2 12.33 2 12.66 2 13 C3.98 13 5.96 13 8 13 C8 12.67 8 12.34 8 12 C6.02 12 4.04 12 2 12 Z M27 14 C28 16 28 16 28 16 Z M28 17 C29 21 29 21 29 21 Z " fill="#000204" transform="translate(172,28)"/>
<path d="M0 0 C1.1484375 2.17578125 1.1484375 2.17578125 2.1484375 4.86328125 C2.4784375 5.62640625 2.8084375 6.38953125 3.1484375 7.17578125 C4.1384375 7.50578125 5.1284375 7.83578125 6.1484375 8.17578125 C7.65357687 10.34283659 9.01198234 12.4662497 10.3359375 14.73828125 C10.70396484 15.35380859 11.07199219 15.96933594 11.45117188 16.60351562 C12.3581165 18.12294234 13.25431918 19.64877158 14.1484375 21.17578125 C15.85727755 19.5523832 17.52290467 17.88259072 19.1484375 16.17578125 C19.1484375 15.51578125 19.1484375 14.85578125 19.1484375 14.17578125 C19.8084375 13.51578125 20.4684375 12.85578125 21.1484375 12.17578125 C21.4784375 11.51578125 21.8084375 10.85578125 22.1484375 10.17578125 C22.6434375 9.74265625 23.1384375 9.30953125 23.6484375 8.86328125 C25.35693938 7.2271857 25.35693938 7.2271857 25.6484375 4.67578125 C26.25459888 1.64497433 26.60246126 0.91829359 29.1484375 -0.82421875 C31.95970793 -1.04136116 34.536772 -1.10706151 37.3359375 -1.01171875 C38.08552734 -0.99818359 38.83511719 -0.98464844 39.60742188 -0.97070312 C41.45473517 -0.93540414 43.30167816 -0.88159792 45.1484375 -0.82421875 C44.4884375 0.82578125 43.8284375 2.47578125 43.1484375 4.17578125 C42.4884375 4.17578125 41.8284375 4.17578125 41.1484375 4.17578125 C40.67664063 5.47902344 40.67664063 5.47902344 40.1953125 6.80859375 C35.71617132 18.86989561 35.71617132 18.86989561 32.1484375 23.17578125 C31.4884375 23.17578125 30.8284375 23.17578125 30.1484375 23.17578125 C30.0659375 23.85640625 29.9834375 24.53703125 29.8984375 25.23828125 C29.21140437 27.929161 28.46482628 29.43205921 27.0234375 31.73828125 C24.95958481 34.83451684 24.95958481 34.83451684 25.2109375 37.30078125 C26.39804757 39.6750014 27.75759437 41.91566117 29.1484375 44.17578125 C29.4784375 45.16578125 29.8084375 46.15578125 30.1484375 47.17578125 C30.7465625 47.91828125 31.3446875 48.66078125 31.9609375 49.42578125 C38.1484375 57.20435268 38.1484375 57.20435268 38.1484375 62.17578125 C39.92026764 64.64135719 39.92026764 64.64135719 42.1484375 67.17578125 C46.03732639 71.84244792 46.03732639 71.84244792 47.1484375 75.17578125 C46.8184375 75.83578125 46.4884375 76.49578125 46.1484375 77.17578125 C44.06539212 77.22996451 41.98193982 77.26865676 39.8984375 77.30078125 C38.73828125 77.32398437 37.578125 77.3471875 36.3828125 77.37109375 C33.24524223 77.18162695 31.68435819 76.96283946 29.1484375 75.17578125 C25.88508604 71.19114995 23.99305804 67.24350449 23.1484375 62.17578125 C22.19544973 60.80845097 21.19469159 59.47313632 20.1484375 58.17578125 C19.46575612 56.85057622 18.7977334 55.51765943 18.1484375 54.17578125 C17.4884375 53.18578125 16.8284375 52.19578125 16.1484375 51.17578125 C12.52765925 54.47416143 10.08959722 58.1195949 7.5234375 62.23828125 C6.73968131 63.47922855 5.95583047 64.72011608 5.171875 65.9609375 C4.50414062 67.02183594 3.83640625 68.08273438 3.1484375 69.17578125 C2.4884375 70.16578125 1.8284375 71.15578125 1.1484375 72.17578125 C0.8184375 73.16578125 0.4884375 74.15578125 0.1484375 75.17578125 C-3.5883468 77.66697078 -5.59608069 77.38230385 -10.0390625 77.30078125 C-11.31136719 77.28273438 -12.58367187 77.2646875 -13.89453125 77.24609375 C-14.87035156 77.22289063 -15.84617187 77.1996875 -16.8515625 77.17578125 C-16.49788361 70.67154012 -14.02481802 66.62286054 -10.4140625 61.30078125 C-9.91068359 60.52992187 -9.40730469 59.7590625 -8.88867188 58.96484375 C-5.15043306 53.32521653 -5.15043306 53.32521653 -2.8515625 52.17578125 C-2.3875 51.00015625 -2.3875 51.00015625 -1.9140625 49.80078125 C-0.8515625 47.17578125 -0.8515625 47.17578125 0.7109375 45.67578125 C2.6594735 43.64252629 2.74590863 41.92639521 3.1484375 39.17578125 C3.3959375 38.51578125 3.6434375 37.85578125 3.8984375 37.17578125 C4.27122816 34.19345599 2.72843914 32.64058381 1.1484375 30.17578125 C1.1484375 29.18578125 1.1484375 28.19578125 1.1484375 27.17578125 C0.40018349 25.3456675 0.40018349 25.3456675 -0.6640625 23.55078125 C-1.00050781 22.93976562 -1.33695312 22.32875 -1.68359375 21.69921875 C-2.86871255 19.85868782 -2.86871255 19.85868782 -5.8515625 19.17578125 C-7.45703125 16.7421875 -7.45703125 16.7421875 -9.0390625 13.73828125 C-9.56886719 12.74957031 -10.09867187 11.76085937 -10.64453125 10.7421875 C-11.8515625 8.17578125 -11.8515625 8.17578125 -11.8515625 6.17578125 C-12.5115625 6.17578125 -13.1715625 6.17578125 -13.8515625 6.17578125 C-14.1815625 5.18578125 -14.5115625 4.19578125 -14.8515625 3.17578125 C-15.1815625 2.51578125 -15.5115625 1.85578125 -15.8515625 1.17578125 C-15.5215625 0.51578125 -15.1915625 -0.14421875 -14.8515625 -0.82421875 C-12.015625 -1.37890625 -12.015625 -1.37890625 -8.4765625 -1.69921875 C-7.31382812 -1.82039063 -6.15109375 -1.9415625 -4.953125 -2.06640625 C-1.8515625 -1.82421875 -1.8515625 -1.82421875 0 0 Z M14.1484375 24.17578125 C15.1484375 26.17578125 15.1484375 26.17578125 15.1484375 26.17578125 Z " fill="#000205" transform="translate(287.8515625,31.82421875)"/>
<path d="M0 0 C7.26485794 -0.86002611 14.80719517 -1.66807733 22 0 C26.13474363 3.3844031 27.8298552 7.03038247 29.95019531 11.84716797 C32.26144104 16.58683421 35.54328672 20.81733124 38.54956055 25.13647461 C41.23755515 29.18848298 43.0053845 31.9990229 42 37 C40.65650399 39.89209423 38.98784296 42.51797848 37.25 45.1875 C36.76354004 45.95763428 36.27708008 46.72776855 35.77587891 47.52124023 C34.73740612 49.1625959 33.69311507 50.80028234 32.64355469 52.43457031 C30.95620902 55.06835347 29.29190369 57.71552698 27.6328125 60.3671875 C25.5393246 63.70790583 23.44437115 67.04759516 21.3359375 70.37890625 C20.90845215 71.0551001 20.4809668 71.73129395 20.04052734 72.42797852 C19 74 19 74 18 75 C16.36527118 75.08700342 14.72685945 75.10701063 13.08984375 75.09765625 C12.10048828 75.09443359 11.11113281 75.09121094 10.09179688 75.08789062 C9.05087891 75.07951172 8.00996094 75.07113281 6.9375 75.0625 C5.89271484 75.05798828 4.84792969 75.05347656 3.77148438 75.04882812 C1.1809334 75.03699913 -1.40950559 75.02051689 -4 75 C-2.61022401 71.39039619 -1.0981875 68.50278289 1.1875 65.375 C4.32616192 60.99381625 7.23367875 56.51674091 10.0859375 51.9453125 C11.50405155 49.76315334 12.94890466 47.65740859 14.4765625 45.5546875 C14.89502441 44.97372314 15.31348633 44.39275879 15.74462891 43.79418945 C16.94506499 42.13827869 18.15970937 40.49269604 19.375 38.84765625 C21.24048581 36.25342275 21.24048581 36.25342275 20.72241211 34.03222656 C19.51537469 30.63669447 17.49506198 27.70681059 15.5625 24.6875 C15.12309082 23.99197021 14.68368164 23.29644043 14.23095703 22.57983398 C10.59849727 16.86035395 6.85558247 11.21509032 3.04907227 5.61010742 C0 1.10184944 0 1.10184944 0 0 Z " fill="#F8FAFC" transform="translate(20,37)"/>
<path d="M0 0 C3.44478904 1.64037573 6.43617868 3.20524344 8.8828125 6.203125 C8.8828125 7.193125 8.8828125 8.183125 8.8828125 9.203125 C9.03832739 11.4330974 9.20630485 13.66221596 9.3828125 15.890625 C9.475625 17.07011719 9.5684375 18.24960937 9.6640625 19.46484375 C9.73625 20.36847656 9.8084375 21.27210937 9.8828125 22.203125 C8.8928125 22.863125 7.9028125 23.523125 6.8828125 24.203125 C6.5528125 25.193125 6.2228125 26.183125 5.8828125 27.203125 C4.8928125 27.203125 3.9028125 27.203125 2.8828125 27.203125 C1.9959375 27.71875 1.1090625 28.234375 0.1953125 28.765625 C-4.01963121 30.59475151 -6.74562001 30.34847568 -11.1171875 29.203125 C-15.20143978 27.55371542 -18.6474273 25.9077653 -21.1171875 22.203125 C-21.53569656 18.83147458 -21.36683356 15.58374866 -21.1171875 12.203125 C-21.0553125 10.90375 -20.9934375 9.604375 -20.9296875 8.265625 C-20.1171875 5.203125 -20.1171875 5.203125 -17.9296875 3.453125 C-17.0015625 3.040625 -16.0734375 2.628125 -15.1171875 2.203125 C-14.1684375 1.64625 -13.2196875 1.089375 -12.2421875 0.515625 C-7.90799841 -1.30473442 -4.4739168 -1.68390965 0 0 Z M-10.1171875 3.203125 C-10.1171875 3.533125 -10.1171875 3.863125 -10.1171875 4.203125 C-7.1471875 4.203125 -4.1771875 4.203125 -1.1171875 4.203125 C-1.1171875 3.873125 -1.1171875 3.543125 -1.1171875 3.203125 C-4.0871875 3.203125 -7.0571875 3.203125 -10.1171875 3.203125 Z M-12.1171875 6.203125 C-12.1171875 6.533125 -12.1171875 6.863125 -12.1171875 7.203125 C-8.4871875 7.203125 -4.8571875 7.203125 -1.1171875 7.203125 C-1.1171875 6.873125 -1.1171875 6.543125 -1.1171875 6.203125 C-4.7471875 6.203125 -8.3771875 6.203125 -12.1171875 6.203125 Z M-13.1171875 8.203125 C-13.1171875 12.823125 -13.1171875 17.443125 -13.1171875 22.203125 C-12.7871875 22.203125 -12.4571875 22.203125 -12.1171875 22.203125 C-12.1171875 17.583125 -12.1171875 12.963125 -12.1171875 8.203125 C-12.4471875 8.203125 -12.7771875 8.203125 -13.1171875 8.203125 Z M-16.1171875 9.203125 C-15.1171875 13.203125 -15.1171875 13.203125 -15.1171875 13.203125 Z M-9.1171875 10.203125 C-8.7871875 11.193125 -8.4571875 12.183125 -8.1171875 13.203125 C-6.4671875 13.203125 -4.8171875 13.203125 -3.1171875 13.203125 C-3.1171875 12.213125 -3.1171875 11.223125 -3.1171875 10.203125 C-5.0971875 10.203125 -7.0771875 10.203125 -9.1171875 10.203125 Z M0.8828125 10.203125 C0.10479063 12.5046661 0.10479063 12.5046661 -0.1171875 15.203125 C1.21434516 17.50816544 1.21434516 17.50816544 2.8828125 19.203125 C2.5528125 16.233125 2.2228125 13.263125 1.8828125 10.203125 C1.5528125 10.203125 1.2228125 10.203125 0.8828125 10.203125 Z M3.8828125 10.203125 C3.8828125 12.513125 3.8828125 14.823125 3.8828125 17.203125 C4.2128125 17.203125 4.5428125 17.203125 4.8828125 17.203125 C4.8828125 14.893125 4.8828125 12.583125 4.8828125 10.203125 C4.5528125 10.203125 4.2228125 10.203125 3.8828125 10.203125 Z M-17.1171875 13.203125 C-16.1171875 16.203125 -16.1171875 16.203125 -16.1171875 16.203125 Z M-2.1171875 15.203125 C-1.4571875 15.863125 -0.7971875 16.523125 -0.1171875 17.203125 C-0.1171875 16.543125 -0.1171875 15.883125 -0.1171875 15.203125 C-0.7771875 15.203125 -1.4371875 15.203125 -2.1171875 15.203125 Z M-16.1171875 16.203125 C-15.1171875 19.203125 -15.1171875 19.203125 -15.1171875 19.203125 Z M-8.1171875 18.203125 C-8.1171875 19.853125 -8.1171875 21.503125 -8.1171875 23.203125 C-9.7671875 23.203125 -11.4171875 23.203125 -13.1171875 23.203125 C-9.86792628 25.36929915 -9.5186633 25.41648169 -5.9296875 24.828125 C-4.0425 24.51875 -4.0425 24.51875 -2.1171875 24.203125 C-3.3911464 22.16479076 -4.72780673 20.16460374 -6.1171875 18.203125 C-6.7771875 18.203125 -7.4371875 18.203125 -8.1171875 18.203125 Z M-1.1171875 23.203125 C-1.4471875 23.863125 -1.7771875 24.523125 -2.1171875 25.203125 C-1.1271875 24.873125 -0.1371875 24.543125 0.8828125 24.203125 C0.2228125 23.873125 -0.4371875 23.543125 -1.1171875 23.203125 Z M-9.1171875 25.203125 C-9.1171875 25.533125 -9.1171875 25.863125 -9.1171875 26.203125 C-6.8071875 26.203125 -4.4971875 26.203125 -2.1171875 26.203125 C-2.1171875 25.873125 -2.1171875 25.543125 -2.1171875 25.203125 C-4.4271875 25.203125 -6.7371875 25.203125 -9.1171875 25.203125 Z " fill="#000408" transform="translate(603.1171875,5.796875)"/>
<path d="M0 0 C0.33 4.95 0.66 9.9 1 15 C1.99 15.33 2.98 15.66 4 16 C2.625 18.5 2.625 18.5 1 21 C0.34 21 -0.32 21 -1 21 C-2.11328125 19.59472656 -2.11328125 19.59472656 -3.3125 17.640625 C-3.74820313 16.93679687 -4.18390625 16.23296875 -4.6328125 15.5078125 C-5.08398438 14.76273438 -5.53515625 14.01765625 -6 13.25 C-6.67675781 12.15558594 -6.67675781 12.15558594 -7.3671875 11.0390625 C-9.38969803 7.74799507 -11.30779007 4.47521194 -13 1 C-9.98130187 -2.01869813 -3.65797796 -0.91449449 0 0 Z " fill="#368BC3" transform="translate(63,49)"/>
<path d="M0 0 C0.99 0.495 0.99 0.495 2 1 C2 2.32 2 3.64 2 5 C2.845625 4.938125 3.69125 4.87625 4.5625 4.8125 C8.73619843 5.04015628 11.25432947 6.20207814 15 8 C11.99935973 13.63098876 8.81213639 18.88084541 5 24 C4.01 23.67 3.02 23.34 2 23 C0.95275422 20.21091836 0.82350895 17.41133217 0.68359375 14.453125 C0.64169922 13.60878906 0.59980469 12.76445313 0.55664062 11.89453125 C0.51732422 11.02183594 0.47800781 10.14914063 0.4375 9.25 C0.39431641 8.36183594 0.35113281 7.47367188 0.30664062 6.55859375 C0.20086385 4.37254037 0.09877454 2.18637911 0 0 Z " fill="#1D6999" transform="translate(62,41)"/>
<path d="M0 0 C0.66 0 1.32 0 2 0 C2 25.41 2 50.82 2 77 C1.34 76.67 0.68 76.34 0 76 C0 50.92 0 25.84 0 0 Z " fill="#021525" transform="translate(141,32)"/>
<path d="M0 0 C0.66 0.66 1.32 1.32 2 2 C1.34 2 0.68 2 0 2 C-0.103125 2.68835938 -0.20625 3.37671875 -0.3125 4.0859375 C-1.12572638 7.5329084 -2.47293079 10.43136967 -4 13.625 C-6.19613818 18.23354002 -6.19613818 18.23354002 -8 23 C-9.1446875 23.8971875 -9.1446875 23.8971875 -10.3125 24.8125 C-13.27866882 27.22682346 -14.90934809 29.82797641 -17 33 C-17.66 33 -18.32 33 -19 33 C-18.42449593 29.13381516 -17.30615377 26.46641208 -15.234375 23.1640625 C-14.67363281 22.26429687 -14.11289062 21.36453125 -13.53515625 20.4375 C-12.94605469 19.509375 -12.35695313 18.58125 -11.75 17.625 C-11.17636719 16.70460938 -10.60273437 15.78421875 -10.01171875 14.8359375 C-6.83146883 9.76492396 -3.53794914 4.82810353 0 0 Z " fill="#175480" transform="translate(63,72)"/>
<path d="M0 0 C0.33 0 0.66 0 1 0 C1 32.67 1 65.34 1 99 C0.67 99 0.34 99 0 99 C0 66.33 0 33.66 0 0 Z " fill="#000104" transform="translate(338,31)"/>
<path d="M0 0 C3.44168675 1.14722892 3.6605865 1.62745698 5.375 4.640625 C5.80296875 5.38183594 6.2309375 6.12304688 6.671875 6.88671875 C7.11015625 7.66660156 7.5484375 8.44648437 8 9.25 C8.87497356 10.77605683 9.74997292 12.30209886 10.625 13.828125 C11.03234375 14.55193359 11.4396875 15.27574219 11.859375 16.02148438 C12.80846587 17.667767 13.83297459 19.27028626 14.875 20.859375 C15.431875 21.91898438 15.431875 21.91898438 16 23 C15.67 23.99 15.34 24.98 15 26 C13.0625 24.875 13.0625 24.875 11 23 C10.25 19.8125 10.25 19.8125 10 17 C9.34 17 8.68 17 8 17 C7.67 16.34 7.34 15.68 7 15 C6.34 15 5.68 15 5 15 C3.68 11.7 2.36 8.4 1 5 C0.67 5 0.34 5 0 5 C0 3.35 0 1.7 0 0 Z " fill="#0D3F65" transform="translate(64,75)"/>
<path d="M0 0 C0.33 0 0.66 0 1 0 C1 27.06 1 54.12 1 82 C0.67 82 0.34 82 0 82 C0 54.94 0 27.88 0 0 Z " fill="#04223B" transform="translate(2,24)"/>
<path d="M0 0 C0.33 0.99 0.66 1.98 1 3 C3.10584438 3.80563638 3.10584438 3.80563638 5.5625 4.1875 C6.38878906 4.34605469 7.21507813 4.50460938 8.06640625 4.66796875 C9.02353516 4.83232422 9.02353516 4.83232422 10 5 C9.21516341 6.48280196 8.42190666 7.9611498 7.625 9.4375 C7.18414062 10.26121094 6.74328125 11.08492187 6.2890625 11.93359375 C5 14 5 14 3 15 C1 14 1 14 0.37890625 12.265625 C-0.04706889 9.71855716 -0.09646629 7.33143831 -0.0625 4.75 C-0.05347656 3.85796875 -0.04445312 2.9659375 -0.03515625 2.046875 C-0.02355469 1.37140625 -0.01195312 0.6959375 0 0 Z " fill="#35759F" transform="translate(63,50)"/>
<path d="M0 0 C0.66 1.32 1.32 2.64 2 4 C1.01 4.495 1.01 4.495 0 5 C0 6.32 0 7.64 0 9 C0.66 9.33 1.32 9.66 2 10 C3.28571429 16.42857143 3.28571429 16.42857143 2 19 C2.00584707 20.95876782 2.05458595 22.91748948 2.125 24.875 C2.20039165 31.63763086 0.95107594 37.55448125 -1 44 C-2.07041123 40.78876631 -1.93878878 39.39600592 -1.44140625 36.11328125 C-1.30283203 35.17548828 -1.16425781 34.23769531 -1.02148438 33.27148438 C-0.87001953 32.29501953 -0.71855469 31.31855469 -0.5625 30.3125 C-0.41490234 29.32443359 -0.26730469 28.33636719 -0.11523438 27.31835938 C0.25024657 24.87788987 0.62222571 22.43859165 1 20 C0.34 19.67 -0.32 19.34 -1 19 C-1.34375 17.14453125 -1.34375 17.14453125 -1.5 14.8125 C-1.83898522 10.9542318 -2.60150855 7.63607776 -4 4 C-3.01 3.67 -2.02 3.34 -1 3 C-0.67 2.01 -0.34 1.02 0 0 Z " fill="#010E1A" transform="translate(470,45)"/>
<path d="M0 0 C0.83272934 0.00222061 1.66545868 0.00444122 2.52342224 0.00672913 C3.46432205 0.00680466 4.40522186 0.00688019 5.37463379 0.00695801 C6.39754013 0.01211929 7.42044647 0.01728058 8.47434998 0.02259827 C9.51614914 0.02401321 10.5579483 0.02542816 11.63131714 0.02688599 C14.97355467 0.03250372 18.31572629 0.04505922 21.65794373 0.05775452 C23.91770839 0.06276723 26.17747409 0.06733053 28.4372406 0.07142639 C33.98999763 0.08247891 39.54271597 0.09923428 45.09544373 0.12025452 C45.09544373 0.45025452 45.09544373 0.78025452 45.09544373 1.12025452 C29.91544373 1.12025452 14.73544373 1.12025452 -0.90455627 1.12025452 C0.62295687 8.42455801 0.62295687 8.42455801 3.09544373 15.12025452 C1.17747498 14.49916077 1.17747498 14.49916077 -0.90455627 13.12025452 C-1.76783752 10.33509827 -1.76783752 10.33509827 -2.21705627 7.05775452 C-2.37818909 5.97365295 -2.5393219 4.88955139 -2.70533752 3.77259827 C-2.77107971 2.89732483 -2.8368219 2.02205139 -2.90455627 1.12025452 C-1.90455627 0.12025452 -1.90455627 0.12025452 0 0 Z " fill="#031D34" transform="translate(543.9045562744141,73.87974548339844)"/>
<path d="M0 0 C1.4540625 0.0309375 1.4540625 0.0309375 2.9375 0.0625 C3.2675 2.0425 3.5975 4.0225 3.9375 6.0625 C4.9275 6.3925 5.9175 6.7225 6.9375 7.0625 C5.5625 9.5625 5.5625 9.5625 3.9375 12.0625 C3.2775 12.0625 2.6175 12.0625 1.9375 12.0625 C-0.0425 8.4325 -2.0225 4.8025 -4.0625 1.0625 C-3.0625 0.0625 -3.0625 0.0625 0 0 Z " fill="#62A5D0" transform="translate(60.0625,57.9375)"/>
<path d="M0 0 C1.98 0.99 1.98 0.99 4 2 C3.34 2 2.68 2 2 2 C2 9.26 2 16.52 2 24 C1.34 24 0.68 24 0 24 C0 16.08 0 8.16 0 0 Z " fill="#032038" transform="translate(352,105)"/>
<path d="M0 0 C2.95749791 3.46741134 5.07848152 6.86873527 7 11 C6.34 11 5.68 11 5 11 C5 10.34 5 9.68 5 9 C3.35 9 1.7 9 0 9 C-0.99 6.36 -1.98 3.72 -3 1 C-2.01 0.67 -1.02 0.34 0 0 Z " fill="#164A71" transform="translate(80,99)"/>
<path d="M0 0 C0 1.32 0 2.64 0 4 C-2.64 4.33 -5.28 4.66 -8 5 C-8.66 3.68 -9.32 2.36 -10 1 C-6.78548731 -0.60725635 -3.56387464 -0.05748185 0 0 Z " fill="#4493C7" transform="translate(63,54)"/>
<path d="M0 0 C0.33 0 0.66 0 1 0 C1 5.61 1 11.22 1 17 C1.99 17.33 2.98 17.66 4 18 C2.3125 19.1875 2.3125 19.1875 0 20 C-2.75 18.625 -2.75 18.625 -5 17 C-4.35546875 16.82726562 -3.7109375 16.65453125 -3.046875 16.4765625 C-0.59554118 15.07017372 -0.59554118 15.07017372 -0.390625 11.5234375 C-0.32418219 10.141427 -0.2780748 8.7583219 -0.25 7.375 C-0.22035156 6.66859375 -0.19070312 5.9621875 -0.16015625 5.234375 C-0.08944643 3.49019953 -0.04245965 1.74509173 0 0 Z " fill="#06375F" transform="translate(63,149)"/>
<path d="M0 0 C0 4.18865448 -2.24104345 6.11890215 -5 9 C-6.93708321 10.90318426 -8.77350764 12.40273374 -11 14 C-11.99 13.67 -12.98 13.34 -14 13 C-13.32453125 12.39671875 -12.6490625 11.7934375 -11.953125 11.171875 C-11.06109375 10.37265625 -10.1690625 9.5734375 -9.25 8.75 C-8.36828125 7.96109375 -7.4865625 7.1721875 -6.578125 6.359375 C-4.32133835 4.29407328 -2.14260074 2.18264936 0 0 Z " fill="#021525" transform="translate(108,132)"/>
<path d="M0 0 C3.96873434 1.32291145 4.29905037 2.91149738 6.1875 6.5625 C6.71730469 7.57441406 7.24710937 8.58632812 7.79296875 9.62890625 C8.19128906 10.41136719 8.58960937 11.19382812 9 12 C8.01 11.67 7.02 11.34 6 11 C6 10.34 6 9.68 6 9 C5.01 8.67 4.02 8.34 3 8 C1.3125 6.75 1.3125 6.75 0 5 C-0.1875 2.3125 -0.1875 2.3125 0 0 Z " fill="#1C4669" transform="translate(64,75)"/>
<path d="M0 0 C-0.33 1.32 -0.66 2.64 -1 4 C-4.3 3.67 -7.6 3.34 -11 3 C-11 2.01 -11 1.02 -11 0 C-3.57142857 -1.28571429 -3.57142857 -1.28571429 0 0 Z " fill="#2883BF" transform="translate(63,49)"/>
<path d="M0 0 C3.00234704 0.06768576 4.47415236 0.23523658 7.1875 1.625 C8.625 3.3125 8.625 3.3125 8.625 6.3125 C7.965 6.3125 7.305 6.3125 6.625 6.3125 C5.965 5.3225 5.305 4.3325 4.625 3.3125 C1.9693272 2.72901248 1.9693272 2.72901248 -1 2.625 C-2.00289062 2.55925781 -3.00578125 2.49351563 -4.0390625 2.42578125 C-4.80992187 2.38839844 -5.58078125 2.35101563 -6.375 2.3125 C-3.97049822 -0.09200178 -3.29266058 0.01640861 0 0 Z " fill="#010B15" transform="translate(597.375,9.6875)"/>
<path d="M0 0 C9.9 0 19.8 0 30 0 C30 0.33 30 0.66 30 1 C20.1 1 10.2 1 0 1 C0 0.67 0 0.34 0 0 Z " fill="#000810" transform="translate(49,11)"/>
<path d="M0 0 C0.33 1.32 0.66 2.64 1 4 C1.639375 4.12375 2.27875 4.2475 2.9375 4.375 C3.618125 4.58125 4.29875 4.7875 5 5 C5.33 5.66 5.66 6.32 6 7 C5.01 7.99 4.02 8.98 3 10 C2.34 9.67 1.68 9.34 1 9 C0.5859375 6.93359375 0.5859375 6.93359375 0.375 4.4375 C0.30023438 3.61121094 0.22546875 2.78492188 0.1484375 1.93359375 C0.09945312 1.29550781 0.05046875 0.65742187 0 0 Z " fill="#4F85A8" transform="translate(63,55)"/>
<path d="M0 0 C1.1446875 -0.01417969 2.289375 -0.02835938 3.46875 -0.04296875 C6.5 0.1875 6.5 0.1875 9.5 2.1875 C8.49839844 2.16429688 7.49679687 2.14109375 6.46484375 2.1171875 C5.12240336 2.09841211 3.77995482 2.08021382 2.4375 2.0625 C1.12652344 2.03929688 -0.18445313 2.01609375 -1.53515625 1.9921875 C-5.61824299 2.19332478 -8.64999053 2.91584538 -12.5 4.1875 C-8.75189811 0.08243603 -5.39870296 0.0303981 0 0 Z " fill="#010B14" transform="translate(371.5,27.8125)"/>
<path d="M0 0 C0.66 1.32 1.32 2.64 2 4 C1.01 4.495 1.01 4.495 0 5 C0 6.32 0 7.64 0 9 C0.66 9.33 1.32 9.66 2 10 C0.68 10 -0.64 10 -2 10 C-2.66 8.02 -3.32 6.04 -4 4 C-3.01 3.67 -2.02 3.34 -1 3 C-0.67 2.01 -0.34 1.02 0 0 Z " fill="#021728" transform="translate(470,45)"/>
<path d="M0 0 C1.65 0 3.3 0 5 0 C5 2.64 5 5.28 5 8 C2.74754119 5.31158141 1.11786042 3.35358125 0 0 Z " fill="#82B6D8" transform="translate(58,62)"/>
<path d="M0 0 C0.67675781 -0.00773437 1.35351562 -0.01546875 2.05078125 -0.0234375 C5.74919257 -0.00884811 7.34603337 0.14735558 10.5 2.25 C3.57 2.25 -3.36 2.25 -10.5 2.25 C-6.87653931 -0.16564046 -4.18396018 -0.04781669 0 0 Z " fill="#010B15" transform="translate(560.5,27.75)"/>
<path d="M0 0 C0.33 1.32 0.66 2.64 1 4 C1.99 4.33 2.98 4.66 4 5 C3.03114628 6.68496298 2.03013277 8.35178756 1 10 C0.67 10 0.34 10 0 10 C0 6.7 0 3.4 0 0 Z " fill="#6C98B6" transform="translate(63,60)"/>
<path d="M0 0 C0.66 0.33 1.32 0.66 2 1 C1.67 1.53625 1.34 2.0725 1 2.625 C-0.22699204 5.5391061 -0.14233286 7.86867708 0 11 C-0.99 10.34 -1.98 9.68 -3 9 C-2.5020163 5.26512223 -2.12508244 3.18762365 0 0 Z " fill="#021423" transform="translate(486,44)"/>
<path d="M0 0 C1.0528418 0.01353516 1.0528418 0.01353516 2.12695312 0.02734375 C3.85561525 0.05086296 5.58410145 0.08673287 7.3125 0.125 C7.3125 0.455 7.3125 0.785 7.3125 1.125 C1.3725 1.455 -4.5675 1.785 -10.6875 2.125 C-7.00662647 -0.32891569 -4.24394412 -0.10302759 0 0 Z " fill="#00080F" transform="translate(437.6875,27.875)"/>
<path d="M0 0 C1.74627478 2.61941217 2.38722388 4.03824877 3 7 C2.34 7 1.68 7 1 7 C1 6.34 1 5.68 1 5 C0.01 5.33 -0.98 5.66 -2 6 C-1.125 1.125 -1.125 1.125 0 0 Z " fill="#0C5789" transform="translate(62,78)"/>
<path d="M0 0 C2.31 0 4.62 0 7 0 C7 0.66 7 1.32 7 2 C4.36 2.33 1.72 2.66 -1 3 C-0.67 2.01 -0.34 1.02 0 0 Z " fill="#4E99C9" transform="translate(56,56)"/>
<path d="M0 0 C0.33 0 0.66 0 1 0 C1 4.95 1 9.9 1 15 C0.67 15 0.34 15 0 15 C0 10.05 0 5.1 0 0 Z " fill="#04223B" transform="translate(419,63)"/>
<path d="M0 0 C4.62 0 9.24 0 14 0 C14 0.33 14 0.66 14 1 C9.38 1 4.76 1 0 1 C0 0.67 0 0.34 0 0 Z " fill="#00080E" transform="translate(235,28)"/>
<path d="M0 0 C4.29 0 8.58 0 13 0 C13 0.33 13 0.66 13 1 C8.71 1 4.42 1 0 1 C0 0.67 0 0.34 0 0 Z " fill="#010E19" transform="translate(318,29)"/>
<path d="M0 0 C4.29 0 8.58 0 13 0 C13 0.33 13 0.66 13 1 C8.71 1 4.42 1 0 1 C0 0.67 0 0.34 0 0 Z " fill="#010C16" transform="translate(273,29)"/>
<path d="M0 0 C3.96 0 7.92 0 12 0 C12 0.33 12 0.66 12 1 C8.04 1 4.08 1 0 1 C0 0.67 0 0.34 0 0 Z " fill="#04223B" transform="translate(321,110)"/>
<path d="M0 0 C3.96 0 7.92 0 12 0 C12 0.33 12 0.66 12 1 C8.04 1 4.08 1 0 1 C0 0.67 0 0.34 0 0 Z " fill="#04223B" transform="translate(273,110)"/>
<path d="M0 0 C3.63 0 7.26 0 11 0 C11 0.33 11 0.66 11 1 C7.37 1 3.74 1 0 1 C0 0.67 0 0.34 0 0 Z " fill="#04223B" transform="translate(239,112)"/>
<path d="M0 0 C3.63 0 7.26 0 11 0 C11 0.33 11 0.66 11 1 C7.37 1 3.74 1 0 1 C0 0.67 0 0.34 0 0 Z " fill="#04223B" transform="translate(189,110)"/>
<path d="M0 0 C3.63 0 7.26 0 11 0 C11 0.33 11 0.66 11 1 C7.37 1 3.74 1 0 1 C0 0.67 0 0.34 0 0 Z " fill="#04223B" transform="translate(144,110)"/>
<path d="M0 0 C0 3 0 3 -1.5 4.6875 C-1.995 5.120625 -2.49 5.55375 -3 6 C-3.66 5.67 -4.32 5.34 -5 5 C-3.35 3.35 -1.7 1.7 0 0 Z " fill="#021221" transform="translate(395,99)"/>
<path d="M0 0 C1.98 1.65 3.96 3.3 6 5 C3 5 3 5 1.3125 3.625 C0 2 0 2 0 0 Z " fill="#021322" transform="translate(468,96)"/>
<path d="M0 0 C3.63 0 7.26 0 11 0 C11 0.33 11 0.66 11 1 C7.37 1 3.74 1 0 1 C0 0.67 0 0.34 0 0 Z " fill="#010D17" transform="translate(340,29)"/>
<path d="M0 0 C3.63 0 7.26 0 11 0 C11 0.33 11 0.66 11 1 C7.37 1 3.74 1 0 1 C0 0.67 0 0.34 0 0 Z " fill="#010D17" transform="translate(144,29)"/>
<path d="M0 0 C3.3 0 6.6 0 10 0 C10 0.33 10 0.66 10 1 C6.7 1 3.4 1 0 1 C0 0.67 0 0.34 0 0 Z " fill="#04223B" transform="translate(558,112)"/>
<path d="M0 0 C3.3 0 6.6 0 10 0 C10 0.33 10 0.66 10 1 C6.7 1 3.4 1 0 1 C0 0.67 0 0.34 0 0 Z " fill="#04223B" transform="translate(495,112)"/>
<path d="M0 0 C3.3 0 6.6 0 10 0 C10 0.33 10 0.66 10 1 C6.7 1 3.4 1 0 1 C0 0.67 0 0.34 0 0 Z " fill="#04223B" transform="translate(433,112)"/>
<path d="M0 0 C2.64 0 5.28 0 8 0 C8 0.33 8 0.66 8 1 C5.36 1 2.72 1 0 1 C0 0.67 0 0.34 0 0 Z " fill="#04223B" transform="translate(368,112)"/>
<path d="M0 0 C1.98 0.66 3.96 1.32 6 2 C5.01 2.33 4.02 2.66 3 3 C2.01 2.01 1.02 1.02 0 0 Z " fill="#031B30" transform="translate(422,108)"/>
<path d="M0 0 C0.33 0 0.66 0 1 0 C1 2.64 1 5.28 1 8 C0.67 8 0.34 8 0 8 C0 5.36 0 2.72 0 0 Z " fill="#04223B" transform="translate(592,64)"/>
<path d="M0 0 C2.64 0 5.28 0 8 0 C8 0.33 8 0.66 8 1 C5.36 1 2.72 1 0 1 C0 0.67 0 0.34 0 0 Z " fill="#04223B" transform="translate(238,41)"/>
<path d="M0 0 C2.64 0 5.28 0 8 0 C8 0.33 8 0.66 8 1 C5.36 1 2.72 1 0 1 C0 0.67 0 0.34 0 0 Z " fill="#010D17" transform="translate(40,12)"/>
<path d="M0 0 C2.64 0 5.28 0 8 0 C8 0.33 8 0.66 8 1 C5.36 1 2.72 1 0 1 C0 0.67 0 0.34 0 0 Z " fill="#04223B" transform="translate(593,3)"/>
<path d="M0 0 C1.32 1.32 2.64 2.64 4 4 C2.68 3.34 1.36 2.68 0 2 C0 1.34 0 0.68 0 0 Z " fill="#021322" transform="translate(538,101)"/>
<path d="M0 0 C0.33 0 0.66 0 1 0 C1 2.31 1 4.62 1 7 C0.67 7 0.34 7 0 7 C0 4.69 0 2.38 0 0 Z " fill="#04223B" transform="translate(591,54)"/>
<path d="M0 0 C2.125 0.375 2.125 0.375 4 1 C2.02 1.33 0.04 1.66 -2 2 C-1.34 1.34 -0.68 0.68 0 0 Z " fill="#010C16" transform="translate(231,29)"/>
<path d="M0 0 C2.97 0.495 2.97 0.495 6 1 C5.01 1.33 4.02 1.66 3 2 C2.01 1.34 1.02 0.68 0 0 Z " fill="#010B14" transform="translate(504,29)"/>
<path d="M0 0 C2.31 0 4.62 0 7 0 C7 0.33 7 0.66 7 1 C4.69 1 2.38 1 0 1 C0 0.67 0 0.34 0 0 Z " fill="#01101C" transform="translate(80,12)"/>
<path d="M0 0 C1.98 0 3.96 0 6 0 C6 0.33 6 0.66 6 1 C4.02 1 2.04 1 0 1 C0 0.67 0 0.34 0 0 Z " fill="#04223B" transform="translate(497,98)"/>
<path d="M0 0 C0.66 0.33 1.32 0.66 2 1 C0.02 1.99 0.02 1.99 -2 3 C-1.34 2.01 -0.68 1.02 0 0 Z " fill="#031D33" transform="translate(520,48)"/>
<path d="M0 0 C0.33 0.66 0.66 1.32 1 2 C0.01 3.485 0.01 3.485 -1 5 C-0.67 3.35 -0.34 1.7 0 0 Z " fill="#021525" transform="translate(582,13)"/>
<path d="M0 0 C0.66 0.33 1.32 0.66 2 1 C0.68 1.33 -0.64 1.66 -2 2 C-1.34 1.34 -0.68 0.68 0 0 Z " fill="#021829" transform="translate(259,108)"/>
<path d="M0 0 C0 0.99 0 1.98 0 3 C-0.66 2.67 -1.32 2.34 -2 2 C-1.34 1.34 -0.68 0.68 0 0 Z " fill="#021321" transform="translate(459,102)"/>
<path d="M0 0 C1.65 0 3.3 0 5 0 C5 0.33 5 0.66 5 1 C3.35 1 1.7 1 0 1 C0 0.67 0 0.34 0 0 Z " fill="#04223B" transform="translate(560,98)"/>
<path d="M0 0 C1.65 0 3.3 0 5 0 C5 0.33 5 0.66 5 1 C3.35 1 1.7 1 0 1 C0 0.67 0 0.34 0 0 Z " fill="#04223B" transform="translate(435,98)"/>
<path d="M0 0 C0.33 0 0.66 0 1 0 C1 1.65 1 3.3 1 5 C0.67 5 0.34 5 0 5 C0 3.35 0 1.7 0 0 Z " fill="#04223B" transform="translate(404,77)"/>
<path d="M0 0 C0.33 0 0.66 0 1 0 C1 1.65 1 3.3 1 5 C0.67 5 0.34 5 0 5 C0 3.35 0 1.7 0 0 Z " fill="#04223B" transform="translate(404,59)"/>
<path d="M0 0 C0.99 0.33 1.98 0.66 3 1 C1.68 1.33 0.36 1.66 -1 2 C-0.67 1.34 -0.34 0.68 0 0 Z " fill="#010C16" transform="translate(547,30)"/>
<path d="M0 0 C0.99 0.33 1.98 0.66 3 1 C1.68 1.33 0.36 1.66 -1 2 C-0.67 1.34 -0.34 0.68 0 0 Z " fill="#010C16" transform="translate(483,30)"/>
<path d="M0 0 C0.33 0 0.66 0 1 0 C1 1.65 1 3.3 1 5 C0.67 5 0.34 5 0 5 C0 3.35 0 1.7 0 0 Z " fill="#04223B" transform="translate(580,18)"/>
<path d="M0 0 C1.65 0 3.3 0 5 0 C5 0.33 5 0.66 5 1 C3.35 1 1.7 1 0 1 C0 0.67 0 0.34 0 0 Z " fill="#021321" transform="translate(88,13)"/>
<path d="M0 0 C4 1 4 1 4 1 Z " fill="#04223B" transform="translate(569,111)"/>
<path d="M0 0 C4 1 4 1 4 1 Z " fill="#04223B" transform="translate(553,111)"/>
<path d="M0 0 C4 1 4 1 4 1 Z " fill="#04223B" transform="translate(506,111)"/>
<path d="M0 0 C4 1 4 1 4 1 Z " fill="#04223B" transform="translate(490,111)"/>
<path d="M0 0 C4 1 4 1 4 1 Z " fill="#04223B" transform="translate(443,111)"/>
<path d="M0 0 C4 1 4 1 4 1 Z " fill="#04223B" transform="translate(428,111)"/>
<path d="M0 0 C4 1 4 1 4 1 Z " fill="#04223B" transform="translate(376,111)"/>
<path d="M0 0 C4 1 4 1 4 1 Z " fill="#04223B" transform="translate(251,111)"/>
<path d="M0 0 C4 1 4 1 4 1 Z " fill="#04223B" transform="translate(234,111)"/>
<path d="M0 0 C0.66 0.33 1.32 0.66 2 1 C1.01 1 0.02 1 -1 1 C-0.67 0.67 -0.34 0.34 0 0 Z " fill="#031B30" transform="translate(453,107)"/>
<path d="M0 0 C0.66 0.33 1.32 0.66 2 1 C1.01 1 0.02 1 -1 1 C-0.67 0.67 -0.34 0.34 0 0 Z " fill="#031B30" transform="translate(518,106)"/>
<path d="M0 0 C0.99 0.33 1.98 0.66 3 1 C2.01 1 1.02 1 0 1 C0 0.67 0 0.34 0 0 Z " fill="#021525" transform="translate(356,107)"/>
<path d="M0 0 C0.99 0.33 1.98 0.66 3 1 C2.01 1 1.02 1 0 1 C0 0.67 0 0.34 0 0 Z " fill="#031B30" transform="translate(419,106)"/>
<path d="M0 0 C4 1 4 1 4 1 Z " fill="#04223B" transform="translate(368,98)"/>
<path d="M0 0 C4 1 4 1 4 1 Z " fill="#04223B" transform="translate(242,98)"/>
<path d="M0 0 C4 1 4 1 4 1 Z " fill="#04223B" transform="translate(566,97)"/>
<path d="M0 0 C4 1 4 1 4 1 Z " fill="#04223B" transform="translate(504,97)"/>
<path d="M0 0 C4 1 4 1 4 1 Z " fill="#04223B" transform="translate(492,97)"/>
<path d="M0 0 C0.99 0.495 0.99 0.495 2 1 C1.67 1.66 1.34 2.32 1 3 C0.67 2.01 0.34 1.02 0 0 Z " fill="#021525" transform="translate(409,94)"/>
<path d="M0 0 C1 4 1 4 1 4 Z " fill="#04223B" transform="translate(420,79)"/>
<path d="M0 0 C1 4 1 4 1 4 Z " fill="#04223B" transform="translate(420,57)"/>
<path d="M0 0 C1 4 1 4 1 4 Z " fill="#04223B" transform="translate(405,54)"/>
<path d="M0 0 C0.66 0.33 1.32 0.66 2 1 C1.01 1 0.02 1 -1 1 C-0.67 0.67 -0.34 0.34 0 0 Z " fill="#010D17" transform="translate(161,47)"/>
<path d="M0 0 C0.66 0.33 1.32 0.66 2 1 C1.01 1 0.02 1 -1 1 C-0.67 0.67 -0.34 0.34 0 0 Z " fill="#010D17" transform="translate(359,44)"/>
<path d="M0 0 C0.99 0.33 1.98 0.66 3 1 C2.01 1 1.02 1 0 1 C0 0.67 0 0.34 0 0 Z " fill="#021322" transform="translate(190,31)"/>
<path d="M0 0 C4 1 4 1 4 1 Z " fill="#04223B" transform="translate(94,14)"/>
<path d="M0 0 C4 1 4 1 4 1 Z " fill="#021525" transform="translate(29,14)"/>
<path d="M0 0 C3 1 3 1 3 1 Z " fill="#04223B" transform="translate(364,111)"/>
<path d="" fill="#04223B" transform="translate(0,0)"/>
<path d="M0 0 C3 1 3 1 3 1 Z " fill="#04223B" transform="translate(573,110)"/>
<path d="M0 0 C3 1 3 1 3 1 Z " fill="#03192C" transform="translate(550,110)"/>
<path d="M0 0 C3 1 3 1 3 1 Z " fill="#03192C" transform="translate(510,110)"/>
<path d="M0 0 C3 1 3 1 3 1 Z " fill="#03192C" transform="translate(487,110)"/>
<path d="M0 0 C3 1 3 1 3 1 Z " fill="#03192C" transform="translate(447,110)"/>
<path d="M0 0 C3 1 3 1 3 1 Z " fill="#04223B" transform="translate(380,110)"/>
<path d="M0 0 C3 1 3 1 3 1 Z " fill="#03192C" transform="translate(231,110)"/>
<path d="M0 0 C3 1 3 1 3 1 Z " fill="#03192C" transform="translate(484,109)"/>
<path d="M0 0 C0.33 0.66 0.66 1.32 1 2 C0.34 1.67 -0.32 1.34 -1 1 C-0.67 0.67 -0.34 0.34 0 0 Z " fill="#02111E" transform="translate(266,103)"/>
<path d="M0 0 C3 1 3 1 3 1 Z " fill="#04223B" transform="translate(556,97)"/>
<path d="M0 0 C3 1 3 1 3 1 Z " fill="#04223B" transform="translate(441,97)"/>
<path d="M0 0 C3 1 3 1 3 1 Z " fill="#04223B" transform="translate(431,97)"/>
<path d="M0 0 C3 1 3 1 3 1 Z " fill="#04223B" transform="translate(374,97)"/>
<path d="M0 0 C3 1 3 1 3 1 Z " fill="#04223B" transform="translate(364,97)"/>
<path d="M0 0 C3 1 3 1 3 1 Z " fill="#04223B" transform="translate(248,97)"/>
<path d="M0 0 C3 1 3 1 3 1 Z " fill="#04223B" transform="translate(238,97)"/>
<path d="" fill="#04223B" transform="translate(0,0)"/>
<path d="" fill="#04223B" transform="translate(0,0)"/>
<path d="M0 0 C3 1 3 1 3 1 Z " fill="#04223B" transform="translate(493,75)"/>
<path d="M0 0 C3 1 3 1 3 1 Z " fill="#02111E" transform="translate(507,63)"/>
<path d="M0 0 C3 1 3 1 3 1 Z " fill="#02111E" transform="translate(504,62)"/>
<path d="M0 0 C3 1 3 1 3 1 Z " fill="#03192C" transform="translate(501,61)"/>
<path d="M0 0 C3 1 3 1 3 1 Z " fill="#04223B" transform="translate(498,60)"/>
<path d="" fill="#04223B" transform="translate(0,0)"/>
<path d="M0 0 C3 1 3 1 3 1 Z " fill="#02111E" transform="translate(565,42)"/>
<path d="M0 0 C3 1 3 1 3 1 Z " fill="#02111E" transform="translate(553,42)"/>
<path d="M0 0 C3 1 3 1 3 1 Z " fill="#010E1A" transform="translate(489,42)"/>
<path d="M0 0 C3 1 3 1 3 1 Z " fill="#02111E" transform="translate(442,42)"/>
<path d="M0 0 C3 1 3 1 3 1 Z " fill="#03192C" transform="translate(363,42)"/>
<path d="M0 0 C3 1 3 1 3 1 Z " fill="#03192C" transform="translate(246,42)"/>
<path d="M0 0 C3 1 3 1 3 1 Z " fill="#02111E" transform="translate(170,42)"/>
<path d="M0 0 C3 1 3 1 3 1 Z " fill="#000307" transform="translate(445,29)"/>
<path d="M0 0 C3 1 3 1 3 1 Z " fill="#000307" transform="translate(169,29)"/>
<path d="" fill="#02111E" transform="translate(0,0)"/>
<path d="M0 0 C3 1 3 1 3 1 Z " fill="#04223B" transform="translate(25,15)"/>
<path d="M0 0 C3 1 3 1 3 1 Z " fill="#03192C" transform="translate(601,4)"/>
<path d="M0 0 C2 1 2 1 2 1 Z " fill="#04223B" transform="translate(53,164)"/>
<path d="M0 0 C2 1 2 1 2 1 Z " fill="#021525" transform="translate(49,161)"/>
<path d="" fill="#04223B" transform="translate(0,0)"/>
<path d="M0 0 C2 1 2 1 2 1 Z " fill="#021525" transform="translate(361,110)"/>
<path d="M0 0 C2 1 2 1 2 1 Z " fill="#021525" transform="translate(255,110)"/>
<path d="M0 0 C2 1 2 1 2 1 Z " fill="#021525" transform="translate(576,109)"/>
<path d="M0 0 C2 1 2 1 2 1 Z " fill="#04223B" transform="translate(548,109)"/>
<path d="M0 0 C2 1 2 1 2 1 Z " fill="#04223B" transform="translate(513,109)"/>
<path d="M0 0 C2 1 2 1 2 1 Z " fill="#021525" transform="translate(450,109)"/>
<path d="M0 0 C2 1 2 1 2 1 Z " fill="#021525" transform="translate(383,109)"/>
<path d="M0 0 C2 1 2 1 2 1 Z " fill="#021525" transform="translate(359,109)"/>
<path d="M0 0 C2 1 2 1 2 1 Z " fill="#021525" transform="translate(229,109)"/>
<path d="M0 0 C2 1 2 1 2 1 Z " fill="#021525" transform="translate(578,108)"/>
<path d="M0 0 C2 1 2 1 2 1 Z " fill="#04223B" transform="translate(546,108)"/>
<path d="M0 0 C2 1 2 1 2 1 Z " fill="#021525" transform="translate(515,108)"/>
<path d="M0 0 C2 1 2 1 2 1 Z " fill="#021525" transform="translate(482,108)"/>
<path d="" fill="#021525" transform="translate(0,0)"/>
<path d="M0 0 C2 1 2 1 2 1 Z " fill="#021525" transform="translate(227,108)"/>
<path d="M0 0 C2 1 2 1 2 1 Z " fill="#02111F" transform="translate(544,107)"/>
<path d="M0 0 C2 1 2 1 2 1 Z " fill="#02111F" transform="translate(480,107)"/>
<path d="M0 0 C2 1 2 1 2 1 Z " fill="#021525" transform="translate(386,107)"/>
<path d="M0 0 C2 1 2 1 2 1 Z " fill="#021525" transform="translate(261,107)"/>
<path d="M0 0 C2 1 2 1 2 1 Z " fill="#021525" transform="translate(581,106)"/>
<path d="M0 0 C2 1 2 1 2 1 Z " fill="#021525" transform="translate(477,105)"/>
<path d="" fill="#04223B" transform="translate(0,0)"/>
<path d="" fill="#04223B" transform="translate(0,0)"/>
<path d="" fill="#04223B" transform="translate(0,0)"/>
<path d="M0 0 C2 1 2 1 2 1 Z " fill="#04223B" transform="translate(252,96)"/>
<path d="" fill="#04223B" transform="translate(0,0)"/>
<path d="" fill="#021525" transform="translate(0,0)"/>
<path d="" fill="#04223B" transform="translate(0,0)"/>
<path d="" fill="#04223B" transform="translate(0,0)"/>
<path d="" fill="#04223B" transform="translate(0,0)"/>
<path d="M0 0 C2 1 2 1 2 1 Z " fill="#02111F" transform="translate(590,89)"/>
<path d="M0 0 C2 1 2 1 2 1 Z " fill="#000509" transform="translate(588,88)"/>
<path d="M0 0 C2 1 2 1 2 1 Z " fill="#000509" transform="translate(586,87)"/>
<path d="" fill="#04223B" transform="translate(0,0)"/>
<path d="M0 0 C2 1 2 1 2 1 Z " fill="#02111F" transform="translate(268,87)"/>
<path d="M0 0 C2 1 2 1 2 1 Z " fill="#02111F" transform="translate(266,86)"/>
<path d="M0 0 C2 1 2 1 2 1 Z " fill="#04223B" transform="translate(583,85)"/>
<path d="M0 0 C2 1 2 1 2 1 Z " fill="#04223B" transform="translate(264,85)"/>
<path d="M0 0 C2 1 2 1 2 1 Z " fill="#02111F" transform="translate(509,80)"/>
<path d="M0 0 C2 1 2 1 2 1 Z " fill="#04223B" transform="translate(490,74)"/>
<path d="M0 0 C2 1 2 1 2 1 Z " fill="#04223B" transform="translate(487,73)"/>
<path d="M0 0 C2 1 2 1 2 1 Z " fill="#04223B" transform="translate(485,72)"/>
<path d="M0 0 C2 1 2 1 2 1 Z " fill="#021525" transform="translate(483,71)"/>
<path d="M0 0 C2 1 2 1 2 1 Z " fill="#021525" transform="translate(481,70)"/>
<path d="M0 0 C2 1 2 1 2 1 Z " fill="#000509" transform="translate(514,66)"/>
<path d="M0 0 C2 1 2 1 2 1 Z " fill="#000509" transform="translate(512,65)"/>
<path d="M0 0 C2 1 2 1 2 1 Z " fill="#021525" transform="translate(510,64)"/>
<path d="M0 0 C2 1 2 1 2 1 Z " fill="#04223B" transform="translate(495,59)"/>
<path d="" fill="#021525" transform="translate(0,0)"/>
<path d="" fill="#04223B" transform="translate(0,0)"/>
<path d="" fill="#04223B" transform="translate(0,0)"/>
<path d="M0 0 C2 1 2 1 2 1 Z " fill="#021525" transform="translate(515,52)"/>
<path d="" fill="#04223B" transform="translate(0,0)"/>
<path d="" fill="#04223B" transform="translate(0,0)"/>
<path d="" fill="#04223B" transform="translate(0,0)"/>
<path d="" fill="#04223B" transform="translate(0,0)"/>
<path d="" fill="#04223B" transform="translate(0,0)"/>
<path d="" fill="#021525" transform="translate(0,0)"/>
<path d="M0 0 C2 1 2 1 2 1 Z " fill="#000509" transform="translate(164,45)"/>
<path d="M0 0 C2 1 2 1 2 1 Z " fill="#02111F" transform="translate(166,44)"/>
<path d="M0 0 C2 1 2 1 2 1 Z " fill="#02111F" transform="translate(551,43)"/>
<path d="M0 0 C2 1 2 1 2 1 Z " fill="#010910" transform="translate(445,43)"/>
<path d="M0 0 C2 1 2 1 2 1 Z " fill="#000509" transform="translate(378,43)"/>
<path d="M0 0 C2 1 2 1 2 1 Z " fill="#02111F" transform="translate(361,43)"/>
<path d="M0 0 C2 1 2 1 2 1 Z " fill="#021525" transform="translate(249,43)"/>
<path d="M0 0 C2 1 2 1 2 1 Z " fill="#02111F" transform="translate(168,43)"/>
<path d="" fill="#04223B" transform="translate(0,0)"/>
<path d="" fill="#021525" transform="translate(0,0)"/>
<path d="" fill="#02111F" transform="translate(0,0)"/>
<path d="" fill="#04223B" transform="translate(0,0)"/>
<path d="" fill="#04223B" transform="translate(0,0)"/>
<path d="M0 0 C2 1 2 1 2 1 Z " fill="#04223B" transform="translate(601,36)"/>
<path d="M0 0 C2 1 2 1 2 1 Z " fill="#04223B" transform="translate(592,36)"/>
<path d="M0 0 C2 1 2 1 2 1 Z " fill="#04223B" transform="translate(603,35)"/>
<path d="M0 0 C2 1 2 1 2 1 Z " fill="#04223B" transform="translate(588,34)"/>
<path d="M0 0 C2 1 2 1 2 1 Z " fill="#04223B" transform="translate(606,33)"/>
<path d="M0 0 C2 1 2 1 2 1 Z " fill="#02111F" transform="translate(258,33)"/>
<path d="M0 0 C2 1 2 1 2 1 Z " fill="#021525" transform="translate(224,33)"/>
<path d="M0 0 C2 1 2 1 2 1 Z " fill="#02111F" transform="translate(575,32)"/>
<path d="M0 0 C2 1 2 1 2 1 Z " fill="#02111F" transform="translate(544,32)"/>
<path d="M0 0 C2 1 2 1 2 1 Z " fill="#02111F" transform="translate(512,32)"/>
<path d="M0 0 C2 1 2 1 2 1 Z " fill="#021525" transform="translate(480,32)"/>
<path d="M0 0 C2 1 2 1 2 1 Z " fill="#02111F" transform="translate(452,32)"/>
<path d="M0 0 C2 1 2 1 2 1 Z " fill="#02111F" transform="translate(357,32)"/>
<path d="" fill="#04223B" transform="translate(0,0)"/>
<path d="M0 0 C2 1 2 1 2 1 Z " fill="#000509" transform="translate(573,31)"/>
<path d="M0 0 C2 1 2 1 2 1 Z " fill="#02111F" transform="translate(510,31)"/>
<path d="M0 0 C2 1 2 1 2 1 Z " fill="#000509" transform="translate(423,31)"/>
<path d="M0 0 C2 1 2 1 2 1 Z " fill="#02111F" transform="translate(227,31)"/>
<path d="M0 0 C2 1 2 1 2 1 Z " fill="#000509" transform="translate(165,31)"/>
<path d="M0 0 C2 1 2 1 2 1 Z " fill="#000509" transform="translate(571,30)"/>
<path d="M0 0 C2 1 2 1 2 1 Z " fill="#000509" transform="translate(425,30)"/>
<path d="M0 0 C2 1 2 1 2 1 Z " fill="#000509" transform="translate(167,30)"/>
<path d="" fill="#04223B" transform="translate(0,0)"/>
<path d="" fill="#04223B" transform="translate(0,0)"/>
<path d="M0 0 C2 1 2 1 2 1 Z " fill="#04223B" transform="translate(605,6)"/>
<path d="M0 0 C2 1 2 1 2 1 Z " fill="#021525" transform="translate(589,5)"/>
<path d="M0 0 C2 1 2 1 2 1 Z " fill="#021525" transform="translate(591,4)"/>
<path d="" fill="#04223B" transform="translate(0,0)"/>
<path d="" fill="#04223B" transform="translate(0,0)"/>
<path d="" fill="#04223B" transform="translate(0,0)"/>
<path d="" fill="#04223B" transform="translate(0,0)"/>
<path d="" fill="#010910" transform="translate(0,0)"/>
<path d="" fill="#04223B" transform="translate(0,0)"/>
<path d="" fill="#010910" transform="translate(0,0)"/>
<path d="" fill="#04223B" transform="translate(0,0)"/>
<path d="" fill="#000103" transform="translate(0,0)"/>
<path d="" fill="#010910" transform="translate(0,0)"/>
<path d="" fill="#010910" transform="translate(0,0)"/>
<path d="" fill="#000103" transform="translate(0,0)"/>
<path d="" fill="#010910" transform="translate(0,0)"/>
<path d="" fill="#04223B" transform="translate(0,0)"/>
<path d="" fill="#04223B" transform="translate(0,0)"/>
<path d="" fill="#04223B" transform="translate(0,0)"/>
<path d="" fill="#010910" transform="translate(0,0)"/>
<path d="" fill="#010910" transform="translate(0,0)"/>
<path d="" fill="#010910" transform="translate(0,0)"/>
<path d="" fill="#04223B" transform="translate(0,0)"/>
<path d="" fill="#010910" transform="translate(0,0)"/>
<path d="" fill="#04223B" transform="translate(0,0)"/>
<path d="" fill="#04223B" transform="translate(0,0)"/>
<path d="" fill="#04223B" transform="translate(0,0)"/>
<path d="" fill="#04223B" transform="translate(0,0)"/>
<path d="" fill="#04223B" transform="translate(0,0)"/>
<path d="" fill="#04223B" transform="translate(0,0)"/>
<path d="" fill="#010910" transform="translate(0,0)"/>
<path d="" fill="#010910" transform="translate(0,0)"/>
<path d="" fill="#04223B" transform="translate(0,0)"/>
<path d="" fill="#04223B" transform="translate(0,0)"/>
<path d="" fill="#010910" transform="translate(0,0)"/>
<path d="" fill="#04223B" transform="translate(0,0)"/>
<path d="" fill="#010910" transform="translate(0,0)"/>
<path d="" fill="#04223B" transform="translate(0,0)"/>
<path d="" fill="#010910" transform="translate(0,0)"/>
<path d="" fill="#010910" transform="translate(0,0)"/>
<path d="" fill="#010910" transform="translate(0,0)"/>
<path d="" fill="#010910" transform="translate(0,0)"/>
<path d="" fill="#010910" transform="translate(0,0)"/>
<path d="" fill="#04223B" transform="translate(0,0)"/>
<path d="" fill="#010910" transform="translate(0,0)"/>
<path d="" fill="#010910" transform="translate(0,0)"/>
<path d="" fill="#010910" transform="translate(0,0)"/>
<path d="" fill="#010910" transform="translate(0,0)"/>
<path d="" fill="#010910" transform="translate(0,0)"/>
<path d="" fill="#010910" transform="translate(0,0)"/>
<path d="" fill="#000103" transform="translate(0,0)"/>
<path d="" fill="#010910" transform="translate(0,0)"/>
<path d="" fill="#000103" transform="translate(0,0)"/>
<path d="" fill="#010910" transform="translate(0,0)"/>
<path d="" fill="#010910" transform="translate(0,0)"/>
<path d="" fill="#000103" transform="translate(0,0)"/>
<path d="" fill="#010910" transform="translate(0,0)"/>
<path d="" fill="#000103" transform="translate(0,0)"/>
<path d="" fill="#010910" transform="translate(0,0)"/>
<path d="" fill="#000103" transform="translate(0,0)"/>
<path d="" fill="#000103" transform="translate(0,0)"/>
<path d="" fill="#000103" transform="translate(0,0)"/>
<path d="" fill="#010910" transform="translate(0,0)"/>
<path d="" fill="#000103" transform="translate(0,0)"/>
<path d="" fill="#000103" transform="translate(0,0)"/>
<path d="" fill="#010910" transform="translate(0,0)"/>
<path d="" fill="#000103" transform="translate(0,0)"/>
<path d="" fill="#010910" transform="translate(0,0)"/>
<path d="" fill="#04223B" transform="translate(0,0)"/>
<path d="" fill="#000103" transform="translate(0,0)"/>
<path d="" fill="#010910" transform="translate(0,0)"/>
<path d="" fill="#010910" transform="translate(0,0)"/>
<path d="" fill="#04223B" transform="translate(0,0)"/>
<path d="" fill="#04223B" transform="translate(0,0)"/>
<path d="" fill="#04223B" transform="translate(0,0)"/>
<path d="" fill="#010910" transform="translate(0,0)"/>
<path d="" fill="#04223B" transform="translate(0,0)"/>
<path d="" fill="#010910" transform="translate(0,0)"/>
<path d="" fill="#010910" transform="translate(0,0)"/>
<path d="" fill="#04223B" transform="translate(0,0)"/>
<path d="" fill="#04223B" transform="translate(0,0)"/>
<path d="" fill="#04223B" transform="translate(0,0)"/>
<path d="" fill="#04223B" transform="translate(0,0)"/>
<path d="" fill="#04223B" transform="translate(0,0)"/>
<path d="" fill="#04223B" transform="translate(0,0)"/>
<path d="" fill="#04223B" transform="translate(0,0)"/>
<path d="" fill="#04223B" transform="translate(0,0)"/>
<path d="" fill="#04223B" transform="translate(0,0)"/>
<path d="" fill="#04223B" transform="translate(0,0)"/>
<path d="" fill="#04223B" transform="translate(0,0)"/>
<path d="" fill="#04223B" transform="translate(0,0)"/>
<path d="" fill="#04223B" transform="translate(0,0)"/>
<path d="" fill="#04223B" transform="translate(0,0)"/>
<path d="" fill="#04223B" transform="translate(0,0)"/>
<path d="" fill="#010910" transform="translate(0,0)"/>
<path d="" fill="#04223B" transform="translate(0,0)"/>
<path d="" fill="#010910" transform="translate(0,0)"/>
<path d="" fill="#04223B" transform="translate(0,0)"/>
<path d="" fill="#04223B" transform="translate(0,0)"/>
<path d="" fill="#010910" transform="translate(0,0)"/>
<path d="" fill="#04223B" transform="translate(0,0)"/>
<path d="" fill="#04223B" transform="translate(0,0)"/>
<path d="" fill="#010910" transform="translate(0,0)"/>
<path d="" fill="#04223B" transform="translate(0,0)"/>
<path d="" fill="#04223B" transform="translate(0,0)"/>
<path d="" fill="#010910" transform="translate(0,0)"/>
<path d="" fill="#04223B" transform="translate(0,0)"/>
<path d="" fill="#010910" transform="translate(0,0)"/>
<path d="" fill="#04223B" transform="translate(0,0)"/>
<path d="" fill="#010910" transform="translate(0,0)"/>
<path d="" fill="#04223B" transform="translate(0,0)"/>
<path d="" fill="#04223B" transform="translate(0,0)"/>
<path d="" fill="#04223B" transform="translate(0,0)"/>
<path d="" fill="#000103" transform="translate(0,0)"/>
<path d="" fill="#000103" transform="translate(0,0)"/>
<path d="" fill="#04223B" transform="translate(0,0)"/>
<path d="" fill="#04223B" transform="translate(0,0)"/>
<path d="" fill="#000103" transform="translate(0,0)"/>
<path d="" fill="#04223B" transform="translate(0,0)"/>
<path d="" fill="#000103" transform="translate(0,0)"/>
<path d="" fill="#04223B" transform="translate(0,0)"/>
<path d="" fill="#04223B" transform="translate(0,0)"/>
<path d="" fill="#000103" transform="translate(0,0)"/>
<path d="" fill="#04223B" transform="translate(0,0)"/>
<path d="" fill="#010910" transform="translate(0,0)"/>
<path d="" fill="#04223B" transform="translate(0,0)"/>
<path d="" fill="#04223B" transform="translate(0,0)"/>
<path d="" fill="#010910" transform="translate(0,0)"/>
<path d="" fill="#010910" transform="translate(0,0)"/>
<path d="" fill="#04223B" transform="translate(0,0)"/>
<path d="" fill="#04223B" transform="translate(0,0)"/>
<path d="" fill="#04223B" transform="translate(0,0)"/>
<path d="" fill="#04223B" transform="translate(0,0)"/>
<path d="" fill="#000103" transform="translate(0,0)"/>
<path d="" fill="#000103" transform="translate(0,0)"/>
<path d="" fill="#010910" transform="translate(0,0)"/>
<path d="" fill="#010910" transform="translate(0,0)"/>
<path d="" fill="#04223B" transform="translate(0,0)"/>
<path d="" fill="#04223B" transform="translate(0,0)"/>
<path d="" fill="#000103" transform="translate(0,0)"/>
<path d="" fill="#010910" transform="translate(0,0)"/>
<path d="" fill="#04223B" transform="translate(0,0)"/>
<path d="" fill="#010910" transform="translate(0,0)"/>
<path d="" fill="#010910" transform="translate(0,0)"/>
<path d="" fill="#010910" transform="translate(0,0)"/>
<path d="" fill="#010910" transform="translate(0,0)"/>
<path d="" fill="#010910" transform="translate(0,0)"/>
<path d="" fill="#010910" transform="translate(0,0)"/>
<path d="" fill="#04223B" transform="translate(0,0)"/>
<path d="" fill="#04223B" transform="translate(0,0)"/>
<path d="" fill="#04223B" transform="translate(0,0)"/>
<path d="" fill="#04223B" transform="translate(0,0)"/>
<path d="" fill="#010910" transform="translate(0,0)"/>
<path d="" fill="#04223B" transform="translate(0,0)"/>
<path d="" fill="#010910" transform="translate(0,0)"/>
<path d="" fill="#04223B" transform="translate(0,0)"/>
<path d="" fill="#010910" transform="translate(0,0)"/>
<path d="" fill="#010910" transform="translate(0,0)"/>
<path d="" fill="#04223B" transform="translate(0,0)"/>
<path d="" fill="#000103" transform="translate(0,0)"/>
<path d="" fill="#010910" transform="translate(0,0)"/>
<path d="" fill="#010910" transform="translate(0,0)"/>
<path d="" fill="#000103" transform="translate(0,0)"/>
<path d="" fill="#010910" transform="translate(0,0)"/>
<path d="" fill="#000103" transform="translate(0,0)"/>
<path d="" fill="#000103" transform="translate(0,0)"/>
<path d="" fill="#000103" transform="translate(0,0)"/>
<path d="" fill="#04223B" transform="translate(0,0)"/>
<path d="" fill="#000103" transform="translate(0,0)"/>
<path d="" fill="#000103" transform="translate(0,0)"/>
<path d="" fill="#000103" transform="translate(0,0)"/>
<path d="" fill="#000103" transform="translate(0,0)"/>
<path d="" fill="#010910" transform="translate(0,0)"/>
<path d="" fill="#000103" transform="translate(0,0)"/>
<path d="" fill="#000103" transform="translate(0,0)"/>
<path d="" fill="#010910" transform="translate(0,0)"/>
<path d="" fill="#04223B" transform="translate(0,0)"/>
<path d="" fill="#04223B" transform="translate(0,0)"/>
<path d="" fill="#010910" transform="translate(0,0)"/>
<path d="" fill="#04223B" transform="translate(0,0)"/>
<path d="" fill="#04223B" transform="translate(0,0)"/>
<path d="" fill="#04223B" transform="translate(0,0)"/>
<path d="" fill="#04223B" transform="translate(0,0)"/>
<path d="" fill="#010910" transform="translate(0,0)"/>
<path d="" fill="#04223B" transform="translate(0,0)"/>
<path d="" fill="#010910" transform="translate(0,0)"/>
<path d="" fill="#04223B" transform="translate(0,0)"/>
<path d="" fill="#010910" transform="translate(0,0)"/>
<path d="" fill="#04223B" transform="translate(0,0)"/>
<path d="" fill="#04223B" transform="translate(0,0)"/>
<path d="" fill="#010910" transform="translate(0,0)"/>
<path d="" fill="#04223B" transform="translate(0,0)"/>
<path d="" fill="#010910" transform="translate(0,0)"/>
<path d="" fill="#04223B" transform="translate(0,0)"/>
<path d="" fill="#04223B" transform="translate(0,0)"/>
<path d="" fill="#04223B" transform="translate(0,0)"/>
<path d="" fill="#04223B" transform="translate(0,0)"/>
<path d="" fill="#04223B" transform="translate(0,0)"/>
<path d="" fill="#04223B" transform="translate(0,0)"/>
<path d="" fill="#010910" transform="translate(0,0)"/>
<path d="" fill="#04223B" transform="translate(0,0)"/>
<path d="" fill="#04223B" transform="translate(0,0)"/>
<path d="" fill="#04223B" transform="translate(0,0)"/>
<path d="" fill="#04223B" transform="translate(0,0)"/>
<path d="" fill="#04223B" transform="translate(0,0)"/>
<path d="" fill="#04223B" transform="translate(0,0)"/>
<path d="" fill="#010910" transform="translate(0,0)"/>
<path d="" fill="#04223B" transform="translate(0,0)"/>
<path d="" fill="#04223B" transform="translate(0,0)"/>
<path d="" fill="#04223B" transform="translate(0,0)"/>
<path d="" fill="#010910" transform="translate(0,0)"/>
<path d="" fill="#04223B" transform="translate(0,0)"/>
<path d="" fill="#04223B" transform="translate(0,0)"/>
<path d="" fill="#04223B" transform="translate(0,0)"/>
<path d="" fill="#010910" transform="translate(0,0)"/>
<path d="" fill="#04223B" transform="translate(0,0)"/>
<path d="" fill="#04223B" transform="translate(0,0)"/>
<path d="" fill="#04223B" transform="translate(0,0)"/>
<path d="" fill="#04223B" transform="translate(0,0)"/>
<path d="" fill="#04223B" transform="translate(0,0)"/>
<path d="" fill="#04223B" transform="translate(0,0)"/>
<path d="" fill="#010910" transform="translate(0,0)"/>
<path d="" fill="#04223B" transform="translate(0,0)"/>
<path d="" fill="#010910" transform="translate(0,0)"/>
<path d="" fill="#04223B" transform="translate(0,0)"/>
<path d="" fill="#04223B" transform="translate(0,0)"/>
<path d="" fill="#04223B" transform="translate(0,0)"/>
<path d="" fill="#010910" transform="translate(0,0)"/>
<path d="" fill="#010910" transform="translate(0,0)"/>
<path d="" fill="#04223B" transform="translate(0,0)"/>
<path d="" fill="#04223B" transform="translate(0,0)"/>
<path d="" fill="#000103" transform="translate(0,0)"/>
<path d="" fill="#04223B" transform="translate(0,0)"/>
<path d="" fill="#04223B" transform="translate(0,0)"/>
<path d="" fill="#04223B" transform="translate(0,0)"/>
<path d="" fill="#010910" transform="translate(0,0)"/>
<path d="" fill="#04223B" transform="translate(0,0)"/>
<path d="" fill="#010910" transform="translate(0,0)"/>
<path d="" fill="#010910" transform="translate(0,0)"/>
<path d="" fill="#010910" transform="translate(0,0)"/>
<path d="" fill="#010910" transform="translate(0,0)"/>
<path d="" fill="#010910" transform="translate(0,0)"/>
<path d="" fill="#000103" transform="translate(0,0)"/>
<path d="" fill="#010910" transform="translate(0,0)"/>
<path d="" fill="#04223B" transform="translate(0,0)"/>
<path d="" fill="#010910" transform="translate(0,0)"/>
<path d="" fill="#010910" transform="translate(0,0)"/>
<path d="" fill="#04223B" transform="translate(0,0)"/>
<path d="" fill="#04223B" transform="translate(0,0)"/>
<path d="" fill="#010910" transform="translate(0,0)"/>
<path d="" fill="#04223B" transform="translate(0,0)"/>
<path d="" fill="#04223B" transform="translate(0,0)"/>
<path d="" fill="#010910" transform="translate(0,0)"/>
<path d="" fill="#04223B" transform="translate(0,0)"/>
<path d="" fill="#000103" transform="translate(0,0)"/>
<path d="" fill="#010910" transform="translate(0,0)"/>
<path d="" fill="#000103" transform="translate(0,0)"/>
<path d="" fill="#010910" transform="translate(0,0)"/>
<path d="" fill="#010910" transform="translate(0,0)"/>
</svg>
